<svg width="31" height="34" viewBox="0 0 31 34" fill="none" xmlns="http://www.w3.org/2000/svg">
<g clip-path="url(#clip0_32_290)">
<path d="M12.2841 25.2031C12.5203 23.9349 12.761 22.7608 13.0953 21.618C13.3566 20.7053 13.6676 19.8076 14.0269 18.9292C14.1267 18.7131 14.1457 18.4681 14.0804 18.2391C13.6545 16.7225 13.4194 15.1583 13.3806 13.5829C13.3182 9.66177 14.8158 6.56963 18.2479 4.53958C20.2982 3.32962 22.5491 2.70223 24.8312 2.14206C26.1075 1.87977 27.368 1.54461 28.6065 1.13824C29.0426 1.02156 29.4185 0.742896 29.6584 0.358482C29.724 0.224913 29.8357 0.119896 29.9727 0.0630053C30.1096 0.0061149 30.2625 0.00123193 30.4027 0.0492678C30.5508 0.0860251 30.683 0.170127 30.7795 0.288926C30.8759 0.407724 30.9314 0.554797 30.9376 0.708027C31.0345 2.05257 31.0002 3.40343 30.8351 4.74124C30.6665 6.89563 30.2231 9.01928 29.5157 11.0599C28.8899 12.9481 27.8993 14.6934 26.6007 16.1956C24.8905 18.1427 22.519 19.3781 19.9505 19.6597C18.6032 19.827 17.2391 19.8014 15.8989 19.5835C15.8203 19.5547 15.7362 19.5437 15.6529 19.5515C15.5695 19.5593 15.4889 19.5855 15.4168 19.6284C15.3448 19.6713 15.2831 19.7297 15.2362 19.7994C15.1893 19.8691 15.1584 19.9484 15.1456 20.0316C14.38 22.2025 13.8422 24.4479 13.541 26.7312C13.2755 28.8112 13.1712 30.9089 13.229 33.0051C13.229 33.6818 12.9794 34.0403 12.5203 34.0493C12.0612 34.0582 11.7581 33.6773 11.7715 32.9917C11.8486 30.6485 11.5828 28.3066 10.9826 26.0411C10.8667 25.6333 10.7196 25.2345 10.6037 24.8311C10.519 24.5354 10.372 24.4547 10.051 24.4995C7.78231 24.8222 5.66513 24.4502 3.83767 22.9714C2.51965 21.8547 1.54429 20.3845 1.02516 18.732C0.47163 17.1296 0.147452 15.4563 0.0623832 13.7622C0.0104725 13.1437 -0.00589137 12.5228 0.0133603 11.9024C-0.00104132 11.7429 0.0303485 11.5825 0.103816 11.4403C0.177284 11.2982 0.289746 11.1802 0.427879 11.1003C0.499498 11.0537 0.579706 11.022 0.663717 11.0072C0.747728 10.9923 0.833836 10.9946 0.916966 11.0138C1.0001 11.033 1.07855 11.0688 1.14766 11.1191C1.21678 11.1694 1.27514 11.2331 1.31932 11.3064C1.49923 11.5703 1.77417 11.7535 2.08598 11.8173C2.86154 12.0279 3.63709 12.2251 4.4171 12.4178C6.04659 12.7452 7.61223 13.337 9.05262 14.17C9.96375 14.7149 10.7259 15.4789 11.2705 16.3933C11.8151 17.3077 12.1252 18.3439 12.1727 19.4087C12.2382 20.6375 12.1164 21.8692 11.8116 23.061C11.7264 23.3792 11.7499 23.7169 11.8785 24.02C12.0077 24.3382 12.1326 24.7325 12.2841 25.2031ZM15.1635 16.4376C15.3328 16.3569 15.3685 16.2045 15.4398 16.0835C16.1593 14.878 17.0379 13.776 18.0517 12.8077C18.7469 12.1395 19.5191 11.5573 20.3517 11.0734C20.4301 11.0238 20.5176 10.9904 20.609 10.9753C20.7004 10.9601 20.794 10.9635 20.8841 10.9852C20.9742 11.0069 21.0591 11.0465 21.1337 11.1017C21.2084 11.1568 21.2714 11.2265 21.3189 11.3064C21.3705 11.3839 21.4062 11.471 21.4236 11.5626C21.441 11.6542 21.4399 11.7484 21.4204 11.8396C21.4008 11.9308 21.3632 12.017 21.3098 12.0933C21.2564 12.1695 21.1882 12.2342 21.1094 12.2834C21.047 12.3326 20.9802 12.373 20.9133 12.4178C18.8703 13.7393 17.222 15.5931 16.1441 17.782C15.9925 18.0733 16.046 18.1629 16.3758 18.1987C17.3051 18.3033 18.2416 18.3273 19.175 18.2704C20.8816 18.1924 22.5316 17.6317 23.9353 16.6527C25.6231 15.3977 26.9241 13.689 27.6883 11.7232C28.9318 8.81031 29.3553 5.72714 29.5157 2.59468C29.5157 2.37061 29.4444 2.3482 29.2572 2.41991C27.7972 2.90988 26.3086 3.30947 24.8 3.61643C22.7888 4.04508 20.8483 4.75876 19.0368 5.7361C17.2182 6.80266 15.8543 8.25014 15.2303 10.316C14.7876 11.8584 14.6796 13.4784 14.9139 15.0663C14.9547 15.5302 15.0382 15.9892 15.1635 16.4376ZM10.6171 21.4432C10.6572 21.1206 10.6973 20.892 10.7107 20.659C10.8177 19.0771 10.5681 17.5893 9.47604 16.3614C8.68437 15.5216 7.69821 14.8919 6.60559 14.5285C5.02327 13.9325 3.34736 13.6771 1.73384 13.1841C1.53327 13.1259 1.50207 13.2065 1.51544 13.3768C1.5511 13.8249 1.56446 14.2731 1.61795 14.7212C1.78207 16.4919 2.28774 18.2134 3.10668 19.7896C4.56419 22.4515 6.92652 23.2851 9.43148 23.061C9.77468 23.0341 9.78806 22.9086 9.6276 22.6442C8.94238 21.4305 7.97797 20.3994 6.81509 19.6373C6.71685 19.5961 6.62865 19.5341 6.55659 19.4554C6.48453 19.3767 6.43032 19.2832 6.39769 19.1813C6.36506 19.0795 6.35479 18.9718 6.3676 18.8656C6.38041 18.7594 6.41598 18.6572 6.47187 18.5662C6.53009 18.481 6.60523 18.4089 6.69256 18.3543C6.77988 18.2998 6.87751 18.264 6.97927 18.2493C7.08103 18.2345 7.18471 18.2412 7.2838 18.2687C7.38289 18.2963 7.47521 18.3441 7.55498 18.4094C8.2522 18.8373 8.88802 19.359 9.44484 19.9599C9.8549 20.3901 10.1981 20.8875 10.6171 21.4298V21.4432Z" fill="#034E4E"/>
</g>
<defs>
<clipPath id="clip0_32_290">
<rect width="31" height="34" fill="white"/>
</clipPath>
</defs>
</svg>
