<svg width="28" height="34" viewBox="0 0 28 34" fill="none" xmlns="http://www.w3.org/2000/svg">
<g clip-path="url(#clip0_33_295)">
<path d="M19.8176 0C19.9471 0.11917 20.0825 0.229173 20.206 0.354454C22.6645 2.84785 25.124 5.34023 27.5845 7.83158C27.7216 7.96366 27.8294 8.12374 27.9011 8.30124C27.9727 8.47874 28.0064 8.66963 28 8.86133C28 15.7874 28 22.7135 28 29.6396C28.006 29.7495 28.006 29.8597 28 29.9696C28.0035 30.0622 27.987 30.1545 27.9515 30.2399C27.9161 30.3253 27.8626 30.4017 27.7948 30.4638C27.727 30.5259 27.6466 30.5721 27.5593 30.5992C27.472 30.6263 27.3799 30.6335 27.2895 30.6205C26.5369 30.6205 25.7843 30.6205 25.0347 30.6205C24.7337 30.6205 24.6554 30.7213 24.6614 31.0055C24.6765 31.7113 24.6614 32.4202 24.6614 33.1292C24.6614 33.8381 24.4627 34.0122 23.7824 34.0122H0.869989C0.213715 34.0122 0.0120239 33.8136 0.0120239 33.1444V3.11063C0.0120239 2.44145 0.216726 2.23672 0.869989 2.23672H2.86289C3.3566 2.23672 3.35661 2.23672 3.35661 1.72032C3.35661 1.39948 3.35661 1.07864 3.35661 0.757795C3.34418 0.607912 3.37377 0.457517 3.44195 0.323971C3.51014 0.190424 3.61414 0.0791714 3.74195 0.00305395L19.8176 0ZM4.5397 15.2415V28.946C4.5397 29.3921 4.53972 29.3921 4.9672 29.3921C12.1059 29.3921 19.2426 29.3921 26.3774 29.3921C26.7085 29.3921 26.8018 29.2913 26.7988 28.9582C26.7988 22.4762 26.7988 15.9952 26.7988 9.51524C26.7988 9.16995 26.6935 9.08745 26.3683 9.0905C24.1888 9.0905 22.0092 9.0905 19.8327 9.0905C19.1945 9.0905 18.9928 8.88578 18.9657 8.24409C18.9657 8.13104 18.9657 8.02104 18.9657 7.91103C18.9657 5.82098 18.9657 3.73092 18.9657 1.64087C18.9657 1.13975 18.9657 1.13975 18.49 1.13975H4.99729C4.54573 1.13975 4.54573 1.13975 4.54573 1.59199L4.5397 15.2415ZM1.20115 18.1168V32.3133C1.20115 32.8236 1.20115 32.8236 1.69486 32.8236H22.9726C23.0267 32.8205 23.081 32.8205 23.1351 32.8236C23.373 32.8511 23.4663 32.7564 23.4602 32.518C23.4452 32.0413 23.4602 31.5647 23.4602 31.091C23.4602 30.6174 23.4603 30.6266 22.9936 30.6266H4.52767C3.45294 30.6266 3.3506 30.5227 3.3506 29.4379V4.1251C3.3506 4.0151 3.3506 3.90204 3.3506 3.79204C3.3506 3.5537 3.26329 3.45286 3.02547 3.45898C2.601 3.45898 2.17352 3.45898 1.74905 3.45898C1.20717 3.45898 1.20716 3.45898 1.20716 3.99371L1.20115 18.1168ZM25.8204 7.88352L20.1668 2.14505C20.1668 2.12366 20.1879 2.1145 20.1668 2.14505C20.1668 3.97843 20.1668 5.81181 20.1668 7.64518C20.1668 7.89269 20.3174 7.89575 20.492 7.89575H25.8234L25.8204 7.88352Z" fill="#034E4E"/>
<path d="M17.3702 10.7283H23.8727C24.3483 10.7283 24.5952 10.9208 24.6102 11.2936C24.6265 11.4273 24.5925 11.5624 24.5149 11.6717C24.4373 11.7811 24.3219 11.8567 24.1918 11.8834C24.0113 11.9262 23.8261 11.9447 23.6409 11.9384H11.0182C10.8441 11.9428 10.6702 11.9254 10.5004 11.8864C10.3697 11.8607 10.2528 11.7876 10.1713 11.6808C10.0899 11.5739 10.0495 11.4406 10.0578 11.3058C10.0624 11.166 10.1158 11.0324 10.2084 10.9289C10.301 10.8253 10.4269 10.7586 10.5636 10.7405C10.6824 10.7262 10.8022 10.7211 10.9218 10.7253L17.3702 10.7283Z" fill="#034E4E"/>
<path d="M17.3401 18.731H10.9339C10.3619 18.731 10.0579 18.5141 10.0609 18.1199C10.0639 17.7257 10.3619 17.5088 10.9459 17.5088H23.7252C23.8877 17.4995 24.0505 17.5181 24.2069 17.5638C24.3242 17.5961 24.4273 17.6677 24.4994 17.767C24.5716 17.8663 24.6085 17.9874 24.6043 18.1107C24.6129 18.2333 24.5808 18.3553 24.5131 18.4572C24.4455 18.5591 24.3461 18.6351 24.231 18.673C24.0747 18.7242 23.91 18.7439 23.7463 18.731H17.3401Z" fill="#034E4E"/>
<path d="M17.3401 22.1197H10.9339C10.8031 22.1279 10.6717 22.1207 10.5425 22.0983C10.4115 22.0757 10.2928 22.0064 10.2078 21.9027C10.1228 21.799 10.0771 21.6679 10.0789 21.533C10.0692 21.4039 10.1055 21.2755 10.1812 21.1712C10.2569 21.0669 10.367 20.9936 10.4914 20.9647C10.6497 20.9238 10.8127 20.9043 10.976 20.9066C15.2248 20.9066 19.4735 20.9066 23.7222 20.9066C23.8854 20.9033 24.0484 20.9218 24.2069 20.9616C24.3313 20.9893 24.4417 21.0618 24.5176 21.1658C24.5934 21.2697 24.6295 21.398 24.6193 21.5269C24.6263 21.6618 24.5842 21.7947 24.5009 21.9C24.4176 22.0054 24.299 22.076 24.1677 22.0983C24.0396 22.1208 23.9092 22.128 23.7794 22.1197H17.3401Z" fill="#034E4E"/>
<path d="M17.34 14.117H23.7462C23.9206 14.1011 24.0963 14.1241 24.261 14.1842C24.3688 14.2251 24.4609 14.3 24.5237 14.3979C24.5866 14.4958 24.6169 14.6115 24.6102 14.7281C24.6144 14.8455 24.5817 14.9612 24.5167 15.0585C24.4518 15.1557 24.358 15.2294 24.249 15.269C24.0946 15.3244 23.9309 15.3483 23.7673 15.3392H10.9248C10.3739 15.3392 10.0729 15.1223 10.0669 14.7281C10.0608 14.3339 10.3679 14.117 10.9369 14.117H17.34Z" fill="#034E4E"/>
<path d="M17.3671 24.3289H23.7372C23.8675 24.3197 23.9983 24.3197 24.1286 24.3289C24.2655 24.3464 24.391 24.4155 24.4802 24.5224C24.5694 24.6294 24.6158 24.7664 24.6102 24.9064C24.6144 25.0457 24.5674 25.1817 24.4784 25.2878C24.3894 25.3939 24.2647 25.4628 24.1286 25.4809C24.0204 25.49 23.9116 25.49 23.8034 25.4809H10.8977C10.3558 25.4809 10.0759 25.2884 10.0638 24.9095C10.0518 24.5306 10.3408 24.2983 10.8977 24.2983L17.3671 24.3289Z" fill="#034E4E"/>
<path d="M8.97105 9.64966C8.45928 9.64966 7.94749 9.64966 7.43572 9.64966C6.92395 9.64966 6.72225 9.448 6.71924 8.9316C6.71924 7.91407 6.71924 6.8996 6.71924 5.87597C6.71924 5.26484 6.91793 5.054 7.51701 5.04483C8.32079 5.04483 9.12759 5.04483 9.92535 5.04483C10.1534 5.03817 10.3816 5.0453 10.6087 5.06622C10.6948 5.06151 10.7808 5.07562 10.8611 5.10758C10.9413 5.13954 11.0138 5.18862 11.0737 5.25148C11.1337 5.31434 11.1796 5.38952 11.2085 5.47196C11.2373 5.55439 11.2484 5.64214 11.2409 5.72929C11.259 6.82321 11.262 7.91407 11.2409 9.00799C11.2409 9.45105 10.985 9.64356 10.5335 9.64661C10.0157 9.65272 9.49186 9.64966 8.97105 9.64966ZM10.0548 7.3885C10.0548 7.10127 10.0548 6.81404 10.0548 6.52681C10.0548 6.32513 9.97654 6.25486 9.78387 6.25792C9.25203 6.25792 8.71918 6.25792 8.18533 6.25792C7.99267 6.25792 7.90836 6.34042 7.91137 6.53292C7.91137 7.08599 7.91137 7.63601 7.91137 8.18602C7.91137 8.37241 7.97158 8.47631 8.17629 8.47325C8.71817 8.47325 9.26004 8.47325 9.80493 8.47325C9.98555 8.47325 10.0578 8.39686 10.0548 8.21352C10.0518 7.93851 10.0548 7.6635 10.0548 7.3885Z" fill="#034E4E"/>
<path d="M7.88433 14.1231C8.05894 14.1231 8.23354 14.1231 8.40513 14.1231C8.55418 14.1221 8.69791 14.1792 8.80661 14.2827C8.91531 14.3862 8.98066 14.5282 8.98916 14.6792C8.99703 14.7529 8.99025 14.8274 8.96922 14.8983C8.94819 14.9692 8.91334 15.0352 8.86673 15.0922C8.82012 15.1492 8.7627 15.1961 8.69789 15.2301C8.63307 15.2642 8.56218 15.2847 8.48941 15.2904C8.06979 15.3606 7.64166 15.3606 7.22204 15.2904C7.07778 15.2727 6.94573 15.1994 6.85327 15.0856C6.7608 14.9718 6.71499 14.8263 6.72531 14.6792C6.73382 14.5346 6.79269 14.3978 6.89139 14.2931C6.99009 14.1884 7.12221 14.1228 7.26419 14.1078C7.29622 14.1047 7.32847 14.1047 7.3605 14.1078H7.88433V14.1231Z" fill="#034E4E"/>
<path d="M7.84216 18.7158C7.64167 18.7286 7.44057 18.7286 7.24008 18.7158C7.09708 18.7043 6.96345 18.6391 6.86543 18.5328C6.7674 18.4265 6.71205 18.2869 6.71024 18.1413C6.70102 17.9951 6.74841 17.851 6.84231 17.7397C6.93621 17.6284 7.0692 17.5587 7.21297 17.5455C7.63171 17.4767 8.05862 17.4767 8.47736 17.5455C8.54873 17.5513 8.61828 17.5713 8.68203 17.6043C8.74578 17.6374 8.80247 17.6829 8.84889 17.7383C8.8953 17.7936 8.9305 17.8577 8.9525 17.9268C8.9745 17.996 8.98285 18.0689 8.97708 18.1413C8.97806 18.2874 8.92357 18.4283 8.82491 18.5347C8.72624 18.6411 8.59101 18.7049 8.44726 18.7127C8.24583 18.7268 8.04372 18.7279 7.84216 18.7158Z" fill="#034E4E"/>
<path d="M7.84819 22.1105C7.65251 22.1105 7.45382 22.1258 7.2461 22.1105C7.10329 22.1 6.96942 22.036 6.87042 21.931C6.77142 21.826 6.71435 21.6874 6.71025 21.5422C6.70243 21.4024 6.74572 21.2646 6.83183 21.1552C6.91795 21.0458 7.0408 20.9725 7.17687 20.9494C7.60609 20.873 8.04513 20.873 8.47436 20.9494C8.54824 20.9558 8.62009 20.9773 8.68559 21.0125C8.75109 21.0478 8.80891 21.0961 8.85557 21.1546C8.90223 21.2131 8.93678 21.2806 8.95714 21.3529C8.97751 21.4253 8.98328 21.5011 8.9741 21.5758C8.97064 21.6522 8.95226 21.7271 8.92003 21.7963C8.8878 21.8654 8.84235 21.9274 8.78634 21.9786C8.73032 22.0297 8.66486 22.0691 8.59374 22.0944C8.52261 22.1196 8.44724 22.1303 8.37202 22.1258C8.18838 22.1258 8.00172 22.1258 7.81809 22.1258L7.84819 22.1105Z" fill="#034E4E"/>
<path d="M7.88429 10.7375C8.07997 10.7375 8.27864 10.7222 8.47131 10.7375C8.60905 10.7459 8.73867 10.8064 8.83455 10.9071C8.93043 11.0078 8.98559 11.1414 8.98912 11.2814C9.00615 11.4256 8.96633 11.5707 8.87836 11.6852C8.79038 11.7997 8.66139 11.8742 8.51949 11.8925C8.08939 11.9705 7.64908 11.9705 7.21898 11.8925C7.07129 11.8741 6.93668 11.7975 6.84428 11.6791C6.75188 11.5607 6.70912 11.4102 6.72527 11.26C6.74294 11.1166 6.81008 10.9842 6.9148 10.8864C7.01951 10.7885 7.15502 10.7314 7.29726 10.7253C7.49293 10.7253 7.68861 10.7253 7.89934 10.7253L7.88429 10.7375Z" fill="#034E4E"/>
<path d="M7.86326 25.5145C7.65856 25.5145 7.45084 25.5298 7.24312 25.5145C7.10045 25.5051 6.9669 25.44 6.8704 25.333C6.77389 25.2259 6.7219 25.0851 6.72531 24.94C6.7187 24.7945 6.76861 24.6522 6.86431 24.5436C6.96002 24.435 7.09387 24.3689 7.23709 24.3595C7.64952 24.3381 8.06496 24.3411 8.47739 24.3595C8.5483 24.3622 8.61798 24.3792 8.68237 24.4095C8.74676 24.4398 8.80457 24.4828 8.85246 24.5359C8.90035 24.5891 8.93736 24.6514 8.96134 24.7192C8.98533 24.787 8.99581 24.8589 8.99218 24.9309C9.00042 25.0766 8.95157 25.2197 8.85626 25.3291C8.76096 25.4384 8.62693 25.5051 8.48341 25.5145C8.2787 25.5145 8.07098 25.5145 7.86326 25.5145Z" fill="#034E4E"/>
</g>
<defs>
<clipPath id="clip0_33_295">
<rect width="28" height="34" fill="white"/>
</clipPath>
</defs>
</svg>
