<svg width="24" height="34" viewBox="0 0 24 34" fill="none" xmlns="http://www.w3.org/2000/svg">
<g clip-path="url(#clip0_33_309)">
<path d="M2.72054 34.0043C2.1633 33.9023 1.64136 33.6571 1.20478 33.2923C0.768201 32.9275 0.431643 32.4553 0.227422 31.9211C0.0687126 31.5037 -0.00654176 31.0587 0.00597996 30.6117C0.0185017 30.1647 0.11857 29.7247 0.300389 29.3171C2.05115 25.0146 3.7976 20.7107 5.53978 16.4054C6.18058 14.8169 6.8171 13.2256 7.44931 11.6313C7.79247 10.6959 7.95984 9.70378 7.9428 8.70615C7.9428 7.32601 7.9428 5.94153 7.9428 4.5614C7.95892 4.26237 7.91557 3.96311 7.81533 3.68132C7.71509 3.39953 7.55998 3.14095 7.35919 2.92086C7.10239 2.62426 6.91318 2.27421 6.80492 1.89547C6.69666 1.51673 6.67201 1.11856 6.73271 0.729119C6.7284 0.625529 6.7468 0.522256 6.78659 0.426701C6.82637 0.331146 6.88654 0.245681 6.96282 0.176414C7.0391 0.107146 7.12959 0.0557947 7.22779 0.0260455C7.32599 -0.00370366 7.42948 -0.0111146 7.53085 0.0043373H16.4863C16.5849 -0.010914 16.6855 -0.00413534 16.7812 0.0242045C16.8769 0.0525443 16.9653 0.101749 17.0402 0.168361C17.115 0.234973 17.1745 0.317377 17.2145 0.409761C17.2545 0.502144 17.274 0.602263 17.2716 0.70308C17.3408 1.08591 17.3243 1.47956 17.2234 1.8551C17.1224 2.23063 16.9394 2.5785 16.688 2.87311C16.4713 3.11493 16.3043 3.39794 16.1967 3.70566C16.0891 4.01339 16.0432 4.33969 16.0615 4.66555C16.0615 5.65943 16.0958 6.65764 16.0615 7.65152C16.0124 9.5435 16.3834 11.4225 17.1471 13.1504C19.3699 18.5016 21.5069 23.8877 23.7039 29.2476C23.8905 29.6517 23.996 30.0891 24.0145 30.5346C24.033 30.9802 23.9641 31.425 23.8117 31.8435C23.6593 32.2619 23.4264 32.6457 23.1266 32.9726C22.8268 33.2996 22.4659 33.5632 22.0647 33.7483C21.8158 33.8568 21.5455 33.9175 21.288 34.0043H2.72054ZM12.0064 32.6546H20.4041C20.8511 32.6807 21.2965 32.5816 21.6914 32.3681C22.0995 32.1219 22.4027 31.7312 22.5422 31.2717C22.6818 30.8123 22.6477 30.3168 22.4466 29.8813C21.9575 28.6964 21.4811 27.5073 21.0005 26.3224C19.8892 23.5795 18.7735 20.8409 17.675 18.0763C17.6454 17.9595 17.5732 17.8583 17.4729 17.7931C17.3726 17.7279 17.2516 17.7035 17.1343 17.7248C16.9069 17.7248 16.6751 17.7248 16.4477 17.7248C13.2637 17.7248 10.0812 17.7248 6.90004 17.7248C6.77181 17.7028 6.64013 17.7315 6.53227 17.805C6.42442 17.8785 6.34868 17.9912 6.32076 18.1197C6.22635 18.4235 6.08045 18.7143 5.9603 19.0094C5.7672 19.4825 5.7672 19.4825 6.28642 19.5085H6.38514C6.55044 19.5201 6.70571 19.5929 6.82129 19.713C6.93686 19.8331 7.00462 19.9921 7.01162 20.1595C7.02272 20.3323 6.96798 20.5028 6.85864 20.636C6.7493 20.7692 6.59367 20.8549 6.42374 20.8757C6.10943 20.9176 5.79191 20.9292 5.47543 20.9104C5.38853 20.899 5.30051 20.9201 5.22785 20.9696C5.15519 21.0191 5.10286 21.0937 5.08063 21.1795C4.95619 21.5093 4.81459 21.8348 4.68586 22.1603C4.48847 22.6507 4.48847 22.6507 5.01198 22.6898C5.18377 22.6884 5.3495 22.7539 5.4749 22.8726C5.60031 22.9914 5.67578 23.1543 5.68569 23.3278C5.69453 23.4163 5.68581 23.5057 5.66005 23.5908C5.63428 23.6759 5.59197 23.7549 5.53561 23.8232C5.47926 23.8915 5.41001 23.9478 5.33188 23.9886C5.25375 24.0295 5.16832 24.0542 5.08063 24.0613C4.77621 24.101 4.46886 24.1126 4.16236 24.096C4.08047 24.0885 3.99854 24.11 3.93049 24.1566C3.86245 24.2033 3.81245 24.2723 3.78901 24.352C3.66028 24.6906 3.51869 25.0291 3.38138 25.3676C3.19257 25.8363 3.19257 25.8363 3.69892 25.8754C3.87014 25.8793 4.03372 25.9478 4.15757 26.0675C4.28142 26.1871 4.35659 26.3493 4.36832 26.5221C4.38385 26.6958 4.3307 26.8687 4.22053 27.0029C4.11036 27.1371 3.95214 27.2217 3.78045 27.2382C3.54439 27.2836 3.30334 27.2968 3.06382 27.2773C2.99305 27.2621 2.92001 27.2613 2.84895 27.275C2.77789 27.2887 2.71024 27.3165 2.64993 27.3569C2.58962 27.3973 2.53786 27.4494 2.49768 27.5103C2.4575 27.5711 2.42969 27.6394 2.41589 27.7113C2.33436 27.976 2.21849 28.2277 2.11551 28.4838C1.90524 29.0046 1.90525 29.0046 2.44163 29.048C2.61301 29.0528 2.77656 29.1215 2.90091 29.2408C3.02526 29.3602 3.10164 29.5218 3.11534 29.6947C3.12169 29.8672 3.0654 30.0362 2.95712 30.1697C2.84883 30.3032 2.696 30.392 2.52743 30.4194C2.2432 30.4597 1.95572 30.4714 1.66922 30.4542C1.45037 30.4542 1.33024 30.554 1.36027 30.7797C1.39422 31.1868 1.54317 31.5755 1.78938 31.8994C2.00602 32.15 2.27747 32.3459 2.58215 32.4718C2.88682 32.5976 3.21632 32.6498 3.54444 32.6242L12.0064 32.6546ZM12.0064 16.3273C13.5255 16.3273 15.0488 16.3273 16.5679 16.3273C16.9455 16.3273 16.9455 16.3273 16.7996 15.9671C16.3705 14.8386 15.8899 13.7146 15.435 12.5905C14.9778 11.5113 14.7301 10.3531 14.7055 9.17921C14.7055 7.53867 14.7055 5.90102 14.7055 4.26626C14.6988 3.69018 14.8472 3.1231 15.1346 2.62572C15.3063 2.33928 15.5637 2.10926 15.7268 1.8315C15.7997 1.723 15.8856 1.5928 15.8384 1.46693C15.7912 1.34107 15.6066 1.38013 15.4865 1.38013C13.2423 1.38013 11.0023 1.38013 8.76238 1.38013C8.55212 1.38013 8.24746 1.26295 8.15306 1.46259C8.05865 1.66223 8.28608 1.89659 8.44485 2.08321C9.01776 2.72058 9.32521 3.55707 9.30306 4.41817C9.30306 5.98059 9.30306 7.53867 9.30306 9.09675C9.30445 10.0602 9.13888 11.0165 8.81387 11.9221C8.33327 13.2979 7.73681 14.6303 7.20042 15.9844C7.06311 16.3273 7.06741 16.3273 7.42357 16.3273C8.95548 16.3316 10.4788 16.3273 12.015 16.3273H12.0064Z" fill="#034E4E"/>
<path d="M15.9542 21.7394C15.9418 21.5792 15.9864 21.4198 16.0801 21.2901C16.1737 21.1603 16.3102 21.0687 16.4648 21.0319C16.6088 20.9912 16.7623 21.0027 16.8987 21.0646C17.0351 21.1264 17.1458 21.2346 17.2115 21.3705C17.3917 21.722 17.5333 22.0953 17.6835 22.4642C18.2928 23.9658 18.9007 25.4689 19.5072 26.9735C19.6025 27.1489 19.6513 27.3462 19.6488 27.5464C19.6364 27.6968 19.5755 27.839 19.4755 27.9511C19.3755 28.0632 19.2419 28.139 19.0953 28.167C18.9556 28.2045 18.8073 28.1907 18.6768 28.1279C18.5464 28.0651 18.4422 27.9574 18.3829 27.8241C18.2284 27.5203 18.1083 27.1992 17.9796 26.8823C17.3359 25.3112 16.6923 23.7358 16.0615 22.1603C15.9949 22.03 15.9582 21.8861 15.9542 21.7394Z" fill="#034E4E"/>
<path d="M19.8935 30.4412C19.8034 30.4424 19.714 30.4251 19.6308 30.3901C19.5476 30.3552 19.4723 30.3034 19.4096 30.2379C19.3469 30.1725 19.2981 30.0948 19.2662 30.0096C19.2343 29.9244 19.22 29.8334 19.2241 29.7424C19.2263 29.5644 19.2979 29.3944 19.4232 29.2693C19.5484 29.1442 19.7174 29.074 19.8935 29.074C20.0752 29.074 20.2497 29.1465 20.379 29.2756C20.5083 29.4048 20.5821 29.5803 20.5843 29.7641C20.5844 29.8549 20.5664 29.9447 20.5314 30.0283C20.4964 30.1119 20.4452 30.1875 20.3808 30.2507C20.3163 30.3139 20.24 30.3633 20.1563 30.396C20.0725 30.4287 19.9832 30.4441 19.8935 30.4412Z" fill="#034E4E"/>
</g>
<defs>
<clipPath id="clip0_33_309">
<rect width="24" height="34" fill="white"/>
</clipPath>
</defs>
</svg>
