<svg width="70" height="72" viewBox="0 0 70 72" fill="none" xmlns="http://www.w3.org/2000/svg">
<g clip-path="url(#clip0_46_434)">
<path d="M7.51071 51.0172C5.8633 52.2891 4.51543 53.561 3.13011 54.7958C2.883 55.0263 2.65086 55.2718 2.38129 55.4949C1.63246 56.142 0.936047 56.1792 0.381918 55.6214C0.248924 55.4784 0.147446 55.3094 0.0839927 55.1252C0.0205394 54.941 -0.0034923 54.7457 0.0134249 54.5518C0.0303421 54.3578 0.0878343 54.1695 0.182235 53.9989C0.276635 53.8283 0.405857 53.6792 0.561628 53.561C1.36537 52.7875 2.18408 52.0437 3.01777 51.3296C5.06954 49.4999 7.21118 47.7817 9.42769 46.123C9.56248 46.0263 9.75717 45.9668 9.8021 45.7065C7.71011 45.3277 5.67468 44.6879 3.74413 43.8024C2.73123 43.3322 1.74842 42.8006 0.801257 42.2106C0.627668 42.1338 0.472292 42.0216 0.345194 41.8813C0.218096 41.7409 0.122127 41.5756 0.0635171 41.3961C0.00490769 41.2165 -0.0150307 41.0267 0.00499243 40.839C0.0250155 40.6513 0.0845537 40.4699 0.179744 40.3065C0.278019 40.145 0.409736 40.006 0.566176 39.8989C0.722615 39.7918 0.900199 39.719 1.08714 39.6852C1.27408 39.6514 1.46611 39.6575 1.65049 39.7031C1.83488 39.7487 2.0074 39.8326 2.15663 39.9495C4.53996 41.4342 7.17689 42.4728 9.93691 43.0139C10.9859 43.1944 12.0474 43.2939 13.1119 43.3115C13.2938 43.325 13.4758 43.2862 13.6361 43.1999C15.5859 42.1109 17.4156 40.8221 19.095 39.3544C20.0142 38.5311 20.6701 37.4581 20.9816 36.2683C21.293 35.0784 21.2463 33.824 20.8473 32.6602C20.0385 29.9305 18.4061 27.6619 16.6988 25.4379C14.5497 22.6412 12.0561 20.142 9.77964 17.4495C9.64406 17.2947 9.47159 17.1762 9.27799 17.1047C9.08438 17.0332 8.87583 17.0111 8.6714 17.0404C6.33349 17.0905 3.99735 16.8784 1.70733 16.4081C1.47519 16.3561 1.24307 16.3189 1.01842 16.2445C0.683997 16.1713 0.392015 15.9703 0.205635 15.685C0.0192552 15.3996 -0.0465515 15.0529 0.0224744 14.7197C0.0478927 14.559 0.105233 14.4049 0.191147 14.2664C0.277061 14.1279 0.389852 14.0077 0.522939 13.9129C0.656027 13.8181 0.806764 13.7505 0.966388 13.7141C1.12601 13.6776 1.29132 13.6731 1.45273 13.7007C2.71075 13.842 3.96878 14.0577 5.19685 14.2288C5.83335 14.3181 6.6945 14.5933 7.05394 14.2288C7.41337 13.8643 6.58967 13.2544 6.30511 12.7412C5.4889 11.3949 4.68016 10.0338 3.98376 8.62055C3.53446 7.69079 3.72917 6.92467 4.48548 6.56021C5.24179 6.19575 5.88578 6.56021 6.35754 7.44534C7.57621 9.84351 9.00444 12.1308 10.6258 14.2809C10.843 14.5635 11.0751 14.8387 11.3746 15.2032C11.6823 14.4746 11.8937 13.7096 12.0036 12.9272C12.4236 10.7969 12.5871 8.62464 12.4904 6.45608C12.4904 6.0693 12.4904 5.71228 12.4904 5.29575C12.4904 4.366 12.9172 3.80815 13.6885 3.80815C14.4598 3.80815 14.9915 4.20236 15.1038 5.11723C15.3488 7.53245 15.2632 9.9695 14.8492 12.3619C14.6041 13.9715 14.2182 15.5568 13.696 17.0999C13.6188 17.2732 13.5968 17.4659 13.633 17.652C13.6691 17.8381 13.7616 18.0088 13.8982 18.1412C16.8935 21.5701 20.7274 23.1544 25.1904 23.504C27.2321 23.6733 29.2878 23.5481 31.2933 23.1321C34.3261 22.4924 36.5351 20.6776 38.482 18.3718C38.6548 18.1563 38.7683 17.9001 38.8115 17.628C39.0886 16.0734 39.1635 14.4966 39.3132 12.9346C39.3731 12.3098 39.1036 12.042 38.5644 11.7891C36.7681 11.0512 35.173 9.90166 33.9093 8.43446C32.6456 6.96726 31.7492 5.22398 31.2933 3.34698C31.2579 3.22489 31.2304 3.10067 31.211 2.97508C31.1676 2.80505 31.1588 2.62814 31.1853 2.45471C31.2117 2.28128 31.2727 2.11484 31.3648 1.96517C31.4569 1.8155 31.5782 1.68561 31.7215 1.58314C31.8648 1.48068 32.0273 1.4077 32.1994 1.36848C32.3709 1.32608 32.5494 1.31941 32.7237 1.34889C32.8979 1.37837 33.0642 1.44337 33.2119 1.53979C33.3596 1.63621 33.4856 1.76196 33.582 1.90914C33.6784 2.05631 33.7431 2.2217 33.7719 2.39492C34.259 4.50041 35.4235 6.3909 37.0892 7.78005C37.5131 8.12241 37.9583 8.43792 38.4221 8.72468C38.6019 8.84369 38.8115 9.09657 39.0362 8.96269C39.2608 8.8288 39.0886 8.54616 39.0362 8.32302C38.7918 6.11603 38.338 3.93692 37.6808 1.81475C37.612 1.64407 37.5805 1.46085 37.5881 1.27717C37.5958 1.09349 37.6426 0.913511 37.7254 0.749079C37.8081 0.584647 37.925 0.43949 38.0684 0.323177C38.2117 0.206864 38.3782 0.122033 38.5569 0.0742598C38.7309 0.0190574 38.9144 -4.46308e-05 39.0962 0.0181478C39.2779 0.0363403 39.4539 0.0914375 39.6133 0.180015C39.7727 0.268592 39.9121 0.388759 40.0227 0.533064C40.1334 0.677369 40.2131 0.842736 40.2568 1.01889C40.2799 1.06715 40.2999 1.11683 40.3167 1.16765C40.9011 3.03948 41.3343 4.95465 41.6121 6.89492C41.863 8.68369 41.9732 10.4891 41.9416 12.2949C42.3184 12.1289 42.6572 11.8885 42.9375 11.5883C44.959 9.781 46.4801 7.489 47.3556 4.93128C47.4071 4.6781 47.5218 4.44186 47.6893 4.24429C47.8568 4.04672 48.0717 3.89417 48.3141 3.8007C48.5366 3.72021 48.7773 3.70334 49.009 3.75199C49.2406 3.80064 49.4539 3.91287 49.6245 4.07592C49.8248 4.2615 49.963 4.50356 50.0205 4.76952C50.0781 5.03548 50.0523 5.31258 49.9465 5.56352C49.4155 7.21597 48.6435 8.7822 47.6551 10.2123C46.2876 12.2341 44.5193 13.9577 42.4583 15.2776C42.2432 15.409 42.063 15.5897 41.9327 15.8045C41.8024 16.0193 41.7259 16.262 41.7095 16.5123C41.5822 17.509 41.3875 18.4908 41.2152 19.4875C40.9745 20.8639 41.2833 22.2794 42.076 23.4334C42.8687 24.5874 44.083 25.3892 45.4611 25.6685C46.498 25.8464 47.5651 25.6742 48.4921 25.1794C49.4191 24.6847 50.1526 23.8958 50.5755 22.9387C52.6276 17.8048 55.8615 13.2196 60.0182 9.5503C60.1879 9.39658 60.3677 9.24781 60.5574 9.10401C60.6876 8.96839 60.8447 8.86109 61.0189 8.78894C61.193 8.71678 61.3803 8.68133 61.569 8.68483C61.7577 8.68832 61.9435 8.7307 62.1148 8.80925C62.2861 8.88781 62.4392 9.00085 62.5642 9.1412C62.6799 9.28194 62.7655 9.44459 62.8159 9.61925C62.8662 9.7939 62.8803 9.97692 62.8572 10.1571C62.8341 10.3374 62.7743 10.511 62.6814 10.6676C62.5886 10.8241 62.4646 10.9602 62.3171 11.0676C61.1689 12.0768 60.0742 13.1443 59.0372 14.266C57.4716 16.0301 56.0963 17.9521 54.9337 20.0007C54.7839 20.2536 54.447 20.5586 54.6342 20.8263C54.8214 21.0941 55.2632 20.9453 55.5852 20.9081C59.4523 20.4619 63.1367 19.0267 66.2784 16.7429C67.3492 15.9991 68.1354 15.9395 68.6596 16.6536C69.1838 17.3676 68.9442 18.0817 67.8434 18.885C66.522 19.8481 65.1072 20.6778 63.62 21.3619C63.4703 21.4362 63.2606 21.4437 63.1633 21.7189C64.3405 22.2588 65.612 22.567 66.9074 22.6263C67.5064 22.6635 68.1055 22.6263 68.7046 22.6263C68.8732 22.6142 69.0426 22.6358 69.2027 22.6899C69.3628 22.7439 69.5104 22.8292 69.6368 22.9409C69.7631 23.0525 69.8656 23.1881 69.9383 23.3398C70.011 23.4915 70.0524 23.656 70.0599 23.8238C70.0774 23.9922 70.0603 24.1622 70.0096 24.3238C69.959 24.4853 69.8758 24.635 69.7652 24.7637C69.6545 24.8923 69.5187 24.9973 69.366 25.0723C69.2133 25.1473 69.0469 25.1907 68.8768 25.1999C65.9044 25.5414 62.904 24.8587 60.3776 23.266C60.1449 23.111 59.8814 23.0076 59.6049 22.9627C59.3284 22.9178 59.0454 22.9324 58.7752 23.0057C57.1675 23.4297 55.5113 23.6448 53.8479 23.6453C53.6422 23.6142 53.4322 23.6624 53.261 23.7799C53.0898 23.8974 52.9703 24.0754 52.9268 24.2776C52.6626 25.0046 52.3186 25.7005 51.901 26.3528C48.9656 31.3511 51.1521 38.0974 57.255 39.4288C58.0169 39.5993 58.8109 39.5633 59.5539 39.3247C62.4496 38.3684 65.489 37.913 68.5398 37.9784C69.4684 37.9784 70.0375 38.4396 70.0375 39.1982C70.0375 39.9569 69.5283 40.6189 68.5024 40.6486C67.2513 40.627 66.0003 40.6916 64.7583 40.842L64.3838 40.9164C64.4213 41.3032 64.7433 41.3776 64.9529 41.5338C66.6139 42.7432 68.1224 44.1467 69.4459 45.7139C69.5283 45.8106 69.6181 45.9073 69.693 46.0115C69.8147 46.1459 69.9085 46.3029 69.9688 46.4735C70.0291 46.6441 70.0547 46.8249 70.0443 47.0054C70.0339 47.1859 69.9875 47.3625 69.9079 47.5251C69.8283 47.6878 69.7171 47.8331 69.5807 47.9528C69.4415 48.0725 69.2783 48.1616 69.102 48.2141C68.9256 48.2666 68.74 48.2814 68.5575 48.2575C68.3749 48.2336 68.1996 48.1716 68.0429 48.0755C67.8863 47.9793 67.7519 47.8513 67.6487 47.6999C66.6344 46.4878 65.506 45.3745 64.279 44.3751C63.2474 43.542 62.1479 42.7956 60.9917 42.1437C60.8679 42.0481 60.7253 41.9795 60.573 41.9423C60.4208 41.9051 60.2623 41.9002 60.1081 41.928C58.3259 42.5156 56.4388 42.1957 54.6267 42.5304C54.095 42.6346 53.5484 42.709 53.0242 42.8429C50.3883 43.5867 49.3325 44.747 49.018 47.4321C48.8982 48.4511 48.9132 49.4924 48.8308 50.5189C48.7936 50.7482 48.8414 50.9832 48.9653 51.1801C49.0892 51.3771 49.2809 51.5227 49.5047 51.59C50.5484 52.0724 51.5503 52.6396 52.5 53.2858C52.6563 53.3971 52.8344 53.4745 53.0227 53.513C53.2111 53.5514 53.4055 53.55 53.5933 53.509C56.351 52.9802 59.1725 52.8624 61.9651 53.1594C62.2755 53.186 62.5834 53.2357 62.8862 53.3082C63.2097 53.3681 63.4987 53.5467 63.6957 53.8085C63.8927 54.0703 63.9833 54.3962 63.9495 54.7214C63.9363 54.8837 63.8909 55.0419 63.8159 55.1867C63.7409 55.3316 63.6378 55.4603 63.5125 55.5653C63.3872 55.6704 63.2422 55.7499 63.0859 55.799C62.9296 55.8482 62.765 55.8662 62.6016 55.8519C60.8582 55.7123 59.1085 55.6627 57.3599 55.7032C56.8913 55.6854 56.4242 55.7665 55.9895 55.9412C57.1486 56.9871 58.2158 58.1293 59.1795 59.3553C59.8085 60.1734 60.4151 61.0139 60.9917 61.8767C61.1166 62.0187 61.21 62.1852 61.266 62.3654C61.322 62.5456 61.3393 62.7354 61.3167 62.9227C61.2941 63.1099 61.2322 63.2903 61.1349 63.4523C61.0376 63.6142 60.9072 63.754 60.752 63.8627C60.5882 63.9693 60.403 64.0396 60.2093 64.0688C60.0156 64.0979 59.8178 64.0853 59.6295 64.0316C59.4411 63.9779 59.2667 63.8846 59.1179 63.7579C58.9692 63.6312 58.8497 63.4741 58.7677 63.2974C56.5361 59.8175 53.5118 56.9078 49.939 54.8032C49.7144 54.6767 49.4823 54.5577 49.2501 54.4387C49.2501 54.4387 49.1528 54.4387 49.0479 54.4387C49.2951 56.9842 50.0323 59.4588 51.2195 61.728C51.5415 62.3751 51.9309 62.985 52.2903 63.6172C52.4081 63.7648 52.4937 63.9349 52.5418 64.117C52.59 64.2991 52.5996 64.4891 52.57 64.675C52.5404 64.8609 52.4724 65.0388 52.3701 65.1973C52.2678 65.3557 52.1336 65.4914 51.9758 65.5957C51.8128 65.6928 51.6312 65.755 51.4425 65.7782C51.2539 65.8014 51.0625 65.7852 50.8805 65.7306C50.6986 65.6759 50.5302 65.5841 50.3861 65.461C50.242 65.3378 50.1254 65.1861 50.0439 65.0156C48.0744 62.0365 46.8145 58.6508 46.3597 55.1156C46.2773 54.5057 46.2324 53.8809 46.2024 53.2635C46.1939 53.1118 46.1477 52.9644 46.068 52.8347C45.9883 52.7049 45.8776 52.5967 45.7456 52.5197C41.058 49.2916 33.1055 50.2883 30.3124 56.9825C29.8331 58.1205 30.1851 59.3924 30.4696 60.5602C31.2185 63.5354 32.791 65.7668 35.7114 66.9941C35.8949 67.0464 36.0648 67.1375 36.2096 67.2611C36.3544 67.3847 36.4706 67.538 36.5502 67.7103C36.6298 67.8826 36.6711 68.07 36.671 68.2596C36.671 68.4493 36.6298 68.6367 36.5501 68.809C36.4729 68.9741 36.3626 69.1219 36.2259 69.2432C36.0893 69.3646 35.9292 69.457 35.7553 69.5148C35.5815 69.5725 35.3977 69.5945 35.215 69.5793C35.0323 69.5641 34.8547 69.512 34.693 69.4263C32.3269 68.4857 30.372 66.7442 29.1742 64.5098L28.7174 63.7139C28.3166 64.7138 28.0498 65.7616 27.9236 66.8305C27.7006 68.0751 27.5929 69.3374 27.6016 70.6015C27.6278 70.7822 27.614 70.9663 27.5613 71.1412C27.5085 71.316 27.4181 71.4773 27.2962 71.614C27.1743 71.7506 27.024 71.8592 26.8556 71.9322C26.6872 72.0053 26.5049 72.0411 26.3212 72.0371C26.1382 72.046 25.9555 72.0151 25.7858 71.9466C25.6161 71.8781 25.4636 71.7736 25.3388 71.6404C25.214 71.5072 25.12 71.3486 25.0633 71.1756C25.0066 71.0026 24.9887 70.8193 25.0107 70.6387C25.0107 66.9197 25.4375 63.3197 27.4594 60.0767C27.6016 59.8462 27.7289 59.6156 27.5492 59.3329C27.3695 59.0503 27.0775 59.2288 26.8453 59.3329C24.0972 60.5066 21.4921 61.9863 19.08 63.7437C18.8329 63.9296 18.5858 64.1305 18.3312 64.2941C18.1882 64.4072 18.0236 64.4904 17.8473 64.5387C17.671 64.5869 17.4867 64.5993 17.3056 64.5749C17.1244 64.5506 16.95 64.4902 16.793 64.3971C16.6359 64.3041 16.4995 64.1805 16.3918 64.0338C16.2873 63.8916 16.2134 63.7297 16.1745 63.5581C16.1355 63.3864 16.1325 63.2086 16.1655 63.0357C16.1985 62.8628 16.2668 62.6985 16.3662 62.5529C16.4657 62.4073 16.5942 62.2835 16.7437 62.1891C18.3185 60.9595 19.9886 59.8553 21.7384 58.8867C23.3283 57.9556 24.997 57.1642 26.7255 56.5214C27.06 56.4276 27.3512 56.2213 27.5493 55.9376C27.7474 55.654 27.84 55.3108 27.8113 54.9668C27.9239 53.5948 27.7155 52.2156 27.2024 50.9369C26.6893 49.6581 25.8853 48.5146 24.8535 47.5958C22.0903 45.0891 18.8629 44.2263 15.2685 45.5354C13.8083 46.0561 12.6776 47.142 11.4196 48.0123C11.2066 48.2086 11.0667 48.4708 11.0227 48.7561C9.84078 52.2523 9.15281 55.8944 8.97842 59.5784C8.97842 60.3222 8.88854 61.0214 8.86608 61.7429C8.82863 62.7842 8.39432 63.3197 7.56313 63.3197C6.73194 63.3197 6.27515 62.7767 6.25269 61.7577C6.22143 58.4763 6.58341 55.2029 7.331 52.0065C7.331 51.7536 7.40587 51.5081 7.51071 51.0172ZM52.163 40.3065C51.7137 39.7784 51.2794 39.2652 50.8376 38.7668C49.6304 37.4385 48.753 35.8479 48.2758 34.1223C47.7986 32.3967 47.7348 30.5841 48.0894 28.8296C48.1643 28.361 48.2018 28.0858 47.5503 28.2197C45.8208 28.5405 44.0327 28.2536 42.4929 27.4081C40.9531 26.5626 39.7575 25.2112 39.1111 23.5858C38.542 22.2619 38.5345 22.2544 37.3813 23.147C33.6372 26.0627 29.2341 26.3825 24.7187 26.0627C23.0566 25.9035 21.4155 25.5745 19.8214 25.0809C20.9707 26.6487 21.9615 28.3255 22.7792 30.0867C24.8385 34.6908 24.0298 38.5214 20.2856 41.9057C20.1509 42.0321 19.8962 42.0991 19.9636 42.404C22.4403 42.7788 24.7479 43.8795 26.5907 45.5652C28.4551 47.2955 29.7474 49.5465 30.2974 52.0214L30.7392 51.642L31.1511 51.285C35.3744 47.7966 40.0546 47.1346 45.1391 49.1205C46.1799 49.5222 46.1425 49.5445 46.2099 48.3767C46.3522 45.9296 46.8239 43.609 48.8757 41.9205C49.8603 41.1831 50.9753 40.6356 52.163 40.3065Z" fill="#034E4E"/>
<path d="M43.7987 37.3092C43.7989 38.2992 43.6001 39.2794 43.214 40.1921C42.8279 41.1049 42.2622 41.9319 41.5501 42.6246C40.8381 43.3174 39.9939 43.862 39.0672 44.2265C38.1404 44.5909 37.1497 44.768 36.1532 44.7472C35.1641 44.7404 34.1861 44.5391 33.2758 44.1548C32.3655 43.7705 31.5408 43.2109 30.8494 42.5083C30.158 41.8056 29.6137 40.9739 29.2477 40.0611C28.8818 39.1483 28.7015 38.1725 28.7174 37.1901C28.7172 36.2001 28.916 35.2199 29.3021 34.3072C29.6882 33.3944 30.2539 32.5674 30.966 31.8747C31.678 31.1819 32.5222 30.6373 33.4489 30.2728C34.3757 29.9084 35.3664 29.7313 36.3629 29.7521C37.352 29.7589 38.33 29.9602 39.2403 30.3445C40.1506 30.7288 40.9753 31.2884 41.6667 31.991C42.358 32.6937 42.9024 33.5254 43.2684 34.4382C43.6343 35.351 43.8145 36.3268 43.7987 37.3092ZM41.1778 37.2422C41.1583 35.9483 40.6307 34.7132 39.7074 33.8003C38.7841 32.8873 37.5383 32.3689 36.2356 32.3554C34.933 32.3806 33.6919 32.9104 32.777 33.8316C31.8621 34.7529 31.3458 35.9928 31.3383 37.2868C31.3708 38.5667 31.8986 39.7849 32.8121 40.6881C33.7256 41.5913 34.9544 42.11 36.2431 42.1364C37.5407 42.1174 38.7803 41.599 39.7008 40.6902C40.6213 39.7815 41.1508 38.5534 41.1778 37.2645V37.2422Z" fill="#034E4E"/>
<path d="M41.5 25L39 20.5L32 24.5H22.5L16.5 23L20.5 29L22.5 33.5L22 36L18 43L28 48.5L30 55L33.5 50.5L40 49.5L47.5 51.5L48.5 43L55 40.5L50 35.5L49 27L41.5 25Z" fill="url(#paint0_linear_46_434)" fill-opacity="0.5"/>
</g>
<defs>
<linearGradient id="paint0_linear_46_434" x1="39.5525" y1="20.5" x2="30.1468" y2="57.6204" gradientUnits="userSpaceOnUse">
<stop stop-color="#034E4E" stop-opacity="0"/>
<stop offset="0.965024" stop-color="#034E4E"/>
</linearGradient>
<clipPath id="clip0_46_434">
<rect width="70" height="72" fill="white"/>
</clipPath>
</defs>
</svg>
