<svg width="30" height="34" viewBox="0 0 30 34" fill="none" xmlns="http://www.w3.org/2000/svg">
<g clip-path="url(#clip0_33_318)">
<path d="M7.21731 34C7.0023 33.9137 6.8206 33.7593 6.69934 33.5597C6.57807 33.3602 6.52374 33.1263 6.54447 32.8929C6.54447 32.2181 6.54447 31.5433 6.54447 30.8685C6.52756 30.7301 6.54018 30.5896 6.5815 30.4566C6.62281 30.3236 6.69183 30.2011 6.78391 30.0974C6.87599 29.9938 6.98898 29.9114 7.11521 29.8559C7.24144 29.8003 7.37797 29.7729 7.51557 29.7755C7.97729 29.7433 8.44038 29.7363 8.90285 29.7544C9.15256 29.7544 9.24967 29.67 9.24967 29.4029C9.23175 29.1052 9.23988 28.8065 9.27395 28.5102C9.33735 27.9658 9.59749 27.4644 10.0042 27.1029C10.4109 26.7414 10.9353 26.5453 11.4763 26.5526C11.7502 26.5526 12.0208 26.5526 12.2948 26.5526C12.3596 26.563 12.4259 26.55 12.4823 26.516C12.5387 26.482 12.5815 26.429 12.6034 26.3663C13.0855 25.1046 13.3248 23.8218 12.9502 22.4792C12.8062 21.9567 12.5877 21.4582 12.3017 20.9996C12.2222 20.8683 12.0993 20.7699 11.9549 20.7219C11.0831 20.4065 10.2643 19.9573 9.52712 19.3899C9.3546 19.2736 9.16144 19.1925 8.95835 19.1509C6.41462 18.4739 4.1657 16.9578 2.56643 14.842C1.24723 13.0239 0.411251 10.8926 0.138681 8.65287C0.0295898 7.82008 -0.0121625 6.97963 0.0138304 6.13994C0.00267436 5.9013 0.0412628 5.66295 0.127059 5.44042C0.212856 5.21789 0.343943 5.01618 0.511793 4.8484C0.679642 4.68063 0.88049 4.55056 1.10124 4.46668C1.322 4.3828 1.5577 4.34699 1.79302 4.36157H5.52135C5.66701 4.36157 5.86817 4.43889 5.89592 4.16827C5.92366 3.89765 5.85084 3.81681 5.59766 3.7676C5.33692 3.71745 5.10346 3.57193 4.94167 3.35874C4.77989 3.14555 4.70107 2.87956 4.72019 2.61132C4.72019 2.15794 4.72019 1.70104 4.72019 1.25118C4.70096 0.989994 4.76242 0.729214 4.89604 0.505018C5.02965 0.280821 5.2288 0.104321 5.46586 -9.54047e-06H9.65199C9.76256 0.0727818 9.85132 0.174876 9.90864 0.295203C9.94446 0.379809 9.95747 0.472549 9.94636 0.563923C9.93525 0.655297 9.9004 0.742046 9.84539 0.81531C9.79037 0.888574 9.71716 0.945728 9.63322 0.980935C9.54927 1.01614 9.45762 1.02814 9.3676 1.01571C8.27858 1.01571 7.18955 1.01571 6.10053 1.01571C5.90284 1.01571 5.75371 1.04733 5.75371 1.29687C5.75371 1.68347 5.75371 2.07007 5.75371 2.45668C5.75371 2.63943 5.85083 2.71323 6.02077 2.71323H23.7086C23.7849 2.71323 23.8612 2.71323 23.9375 2.71323C24.1838 2.71323 24.2844 2.6324 24.2844 2.36177C24.2844 2.09115 24.2844 1.7854 24.2844 1.4972C24.2844 1.00516 24.2843 1.00515 23.7884 1.00515H11.9549C11.6739 1.00515 11.4069 1.00516 11.2612 0.685337C11.1156 0.365511 11.2959 0.179238 11.4832 -0.0175781H24.5618C24.8179 0.0998364 25.0294 0.298335 25.1645 0.54807C25.2996 0.797805 25.351 1.08527 25.3109 1.36717C25.2832 1.76431 25.3109 2.16496 25.3109 2.56211C25.3365 2.84132 25.2566 3.11996 25.0873 3.34175C24.918 3.56355 24.6719 3.71198 24.3988 3.75707C24.1352 3.81331 24.1248 3.95038 24.1352 4.15422C24.1456 4.35807 24.3364 4.344 24.482 4.344H28.2069C28.447 4.32778 28.6876 4.36393 28.9127 4.45001C29.1378 4.53609 29.3421 4.67009 29.5117 4.84298C29.6813 5.01587 29.8123 5.22363 29.896 5.45222C29.9796 5.6808 30.0139 5.92491 29.9965 6.16807C30.0555 9.29955 29.3375 12.2026 27.4959 14.7542C25.845 17.0422 23.5838 18.4234 20.9237 19.1825C20.7553 19.226 20.5965 19.3011 20.4555 19.4039C19.7326 19.9581 18.9302 20.3966 18.0763 20.7043C17.9004 20.7655 17.7533 20.8908 17.6635 21.0558C17.2441 21.7292 16.9807 22.4901 16.893 23.2814C16.8053 24.0727 16.8956 24.8739 17.1572 25.6247C17.452 26.5596 17.452 26.5596 18.4023 26.5632C19.8346 26.5632 20.7503 27.5015 20.7641 28.9495C20.7641 29.8704 20.6358 29.7438 21.5653 29.7579C21.9032 29.7438 22.2416 29.7544 22.578 29.7895C22.8212 29.8076 23.0479 29.9207 23.2103 30.1049C23.3728 30.2892 23.4582 30.5302 23.4485 30.7771C23.4485 31.5292 23.4485 32.2814 23.4485 33.0335C23.4514 33.2458 23.3888 33.4538 23.2695 33.6283C23.1501 33.8029 22.9799 33.9353 22.7826 34.007L7.21731 34ZM6.91557 8.0343C6.91557 9.25035 6.91557 10.4699 6.91557 11.686C6.9147 12.2746 6.96108 12.8623 7.05429 13.4432C7.25352 14.5752 7.68585 15.6519 8.32311 16.6032C8.96038 17.5546 9.78829 18.3592 10.7529 18.9647C11.7175 19.5701 12.7971 19.9629 13.9215 20.1173C15.0459 20.2717 16.1898 20.1843 17.2786 19.8609C20.7468 18.8065 23.0531 15.6434 23.0774 11.8054C23.0948 9.26088 23.0774 6.71634 23.0774 4.17179C23.0774 3.90117 23.0046 3.82033 22.7306 3.82033C17.5768 3.82033 12.4231 3.82033 7.26932 3.82033C6.97452 3.82033 6.90169 3.92225 6.92249 4.20693C6.9329 5.46514 6.93291 6.75148 6.93291 8.0343H6.91557ZM22.4081 17.478C23.8334 16.8946 25.1016 15.9768 26.1086 14.7999C28.2312 12.301 29.0219 9.34524 28.9214 6.09777C28.9306 6.0087 28.9197 5.91866 28.8896 5.83448C28.8594 5.75029 28.8107 5.67416 28.7472 5.61186C28.6837 5.54955 28.6071 5.5027 28.5231 5.47485C28.4391 5.44699 28.3499 5.43888 28.2624 5.4511H24.9919C24.0901 5.4511 24.0971 5.45109 24.1075 6.3684C24.1075 6.61793 24.1942 6.69525 24.4335 6.69173C25.1711 6.69173 25.9121 6.69173 26.6566 6.69173C26.7929 6.68575 26.929 6.70929 27.0556 6.76074C27.1823 6.8122 27.2967 6.89041 27.3912 6.99016C27.4857 7.08992 27.5581 7.20894 27.6037 7.33928C27.6493 7.46963 27.6669 7.60831 27.6555 7.74611C27.624 8.28752 27.5451 8.82504 27.4196 9.35227C27.3364 9.73536 27.0728 9.9111 26.7711 9.84432C26.4693 9.77754 26.3237 9.49286 26.393 9.1168C26.4624 8.74074 26.5005 8.41388 26.5664 8.06243C26.608 7.83046 26.5318 7.74611 26.2959 7.75314C25.7167 7.75314 25.141 7.75314 24.5618 7.75314C24.1144 7.75314 24.1144 7.75314 24.1144 8.21355C24.1144 9.58424 24.1144 10.9549 24.1144 12.3256C24.1144 12.7614 24.0208 13.1867 23.993 13.6822C24.3335 13.3408 24.6445 12.9704 24.9225 12.5751C25.1889 12.1844 25.4287 11.7758 25.6404 11.3521C25.6637 11.2807 25.7017 11.2152 25.7519 11.1598C25.8021 11.1044 25.8634 11.0605 25.9316 11.031C25.9998 11.0014 26.0734 10.9868 26.1476 10.9882C26.2217 10.9897 26.2948 11.0071 26.3618 11.0393C26.4307 11.0737 26.4915 11.1226 26.5403 11.1828C26.589 11.2429 26.6246 11.3129 26.6446 11.388C26.6646 11.4631 26.6686 11.5417 26.6563 11.6186C26.6441 11.6954 26.6158 11.7687 26.5734 11.8336L26.5144 11.9531C25.9 13.2316 24.9926 14.3426 23.8682 15.1935C23.5726 15.3978 23.3405 15.683 23.1988 16.0159C22.9666 16.52 22.7025 17.0084 22.4081 17.478ZM15 30.8334C12.6693 30.8334 10.3387 30.8334 8.00805 30.8334C7.70978 30.8334 7.5988 30.9212 7.61614 31.227C7.63868 31.6801 7.63868 32.134 7.61614 32.5871C7.5988 32.914 7.72366 32.9948 8.03233 32.9948C9.91556 32.9948 11.7988 32.9948 13.6821 32.9948C16.4566 32.9948 19.2312 32.9948 22.0057 32.9948C22.2901 32.9948 22.3976 32.914 22.3838 32.6188C22.3612 32.1668 22.3612 31.7141 22.3838 31.2621C22.4046 30.9107 22.2763 30.8334 21.9537 30.8369C19.637 30.8369 17.3375 30.8334 15 30.8334ZM7.62655 17.5237C7.6159 17.4651 7.59723 17.4083 7.57107 17.355C7.1977 16.8236 6.87924 16.2548 6.62076 15.6574C6.56174 15.5508 6.4755 15.4621 6.37106 15.4009C3.81499 13.5276 2.64967 10.8952 2.35487 7.79532C2.33398 7.65173 2.3454 7.50521 2.38825 7.36672C2.43111 7.22823 2.50429 7.10136 2.60235 6.99557C2.70041 6.88978 2.82079 6.80781 2.9545 6.75581C3.08822 6.7038 3.2318 6.68311 3.37452 6.69525C3.94331 6.69525 4.50864 6.69525 5.07396 6.69525C5.89592 6.69525 5.88205 6.69526 5.89592 5.84825C5.89592 5.54248 5.80228 5.44759 5.50401 5.4511C4.2832 5.4511 3.07627 5.4511 1.84505 5.4511C1.26933 5.4511 1.09244 5.63033 1.07163 6.22429C1.02962 7.33074 1.12399 8.43819 1.35255 9.52096C1.9907 12.4837 3.43349 14.9123 5.95487 16.6169C6.47804 16.9796 7.03856 17.2837 7.62655 17.5237ZM15.0104 29.7509C16.4462 29.7509 17.8855 29.7509 19.3213 29.7509C19.5988 29.7509 19.7306 29.6771 19.7029 29.3748C19.7029 29.1569 19.7029 28.932 19.7029 28.7141C19.695 28.437 19.5829 28.1734 19.3894 27.9773C19.196 27.7813 18.9359 27.6677 18.6624 27.6597C16.2346 27.6597 13.8069 27.6597 11.3792 27.6597C11.106 27.6685 10.8463 27.7824 10.653 27.9783C10.4598 28.1741 10.3474 28.4372 10.3387 28.7141C10.3387 28.8687 10.3387 29.0233 10.3387 29.178C10.3387 29.7473 10.3387 29.7474 10.8797 29.7474L15.0104 29.7509ZM13.6231 21.1542C13.7098 21.3792 13.7826 21.5584 13.845 21.7447C14.3184 23.1252 14.3184 24.6273 13.845 26.0078C13.6612 26.5561 13.6647 26.5561 14.2474 26.5561H15.7838C16.4185 26.5561 16.3942 26.6159 16.1861 26.0078C15.8442 24.9999 15.7478 23.9232 15.9052 22.8693C16.002 22.2787 16.1709 21.7026 16.4081 21.1542C15.4806 21.2997 14.5366 21.2997 13.6092 21.1542H13.6231ZM6.04852 13.6611C5.91994 12.9568 5.87108 12.2399 5.90286 11.5243C5.90286 10.4066 5.90286 9.29253 5.90286 8.1749C5.90286 7.87616 5.83002 7.75665 5.52135 7.76719C4.93175 7.78828 4.34564 7.78477 3.75604 7.76719C3.49939 7.76719 3.40921 7.82694 3.44736 8.11865C3.62808 9.82936 4.25405 11.4607 5.26123 12.8458C5.47716 13.1554 5.73789 13.4303 6.03463 13.6611H6.04852Z" fill="#023D3D"/>
<path d="M11.9099 14.3852C11.9758 13.995 12.0382 13.5241 12.1318 13.0602C12.1546 12.9755 12.1527 12.8859 12.1262 12.8023C12.0998 12.7187 12.0499 12.6447 11.9827 12.5892C11.6914 12.3081 11.4035 12.0199 11.1191 11.7281C10.9508 11.5832 10.8281 11.3914 10.7665 11.1764C10.7048 10.9615 10.7069 10.7329 10.7723 10.5191C10.8275 10.2969 10.9461 10.096 11.1133 9.94167C11.2804 9.78729 11.4887 9.68619 11.7122 9.65102C12.0972 9.58073 12.4856 9.5245 12.874 9.47881C12.9882 9.47389 13.0986 9.43584 13.1921 9.36917C13.2855 9.30251 13.3581 9.21002 13.4012 9.10275C13.5538 8.75129 13.748 8.39983 13.9041 8.04838C13.995 7.83688 14.1455 7.65732 14.3368 7.53226C14.5281 7.4072 14.7516 7.34221 14.9792 7.34546C15.2053 7.3388 15.4283 7.39997 15.6202 7.52128C15.8121 7.64258 15.9643 7.81861 16.0578 8.02729C16.2347 8.37875 16.4047 8.73021 16.5781 9.08166C16.6159 9.17945 16.6802 9.26439 16.7637 9.32659C16.8472 9.3888 16.9464 9.42573 17.0498 9.43312C17.3966 9.4753 17.7434 9.52803 18.0902 9.57723C18.3377 9.59066 18.5752 9.68029 18.771 9.83415C18.9669 9.98802 19.1117 10.1988 19.1862 10.4383C19.2639 10.6708 19.2694 10.9218 19.2018 11.1575C19.1342 11.3933 18.9968 11.6023 18.8081 11.7563C18.5307 12.0234 18.2671 12.301 17.9896 12.5681C17.9272 12.6208 17.8812 12.6906 17.8572 12.7692C17.8332 12.8478 17.8322 12.9318 17.8544 13.011C17.9376 13.3976 17.9896 13.7947 18.0555 14.1848C18.1087 14.4194 18.0912 14.6647 18.0052 14.889C17.9193 15.1133 17.7689 15.3063 17.5735 15.4431C17.3889 15.5845 17.167 15.667 16.936 15.6801C16.705 15.6933 16.4754 15.6364 16.2763 15.5168C15.9295 15.3376 15.5827 15.1654 15.2359 14.9651C15.1632 14.917 15.0782 14.8914 14.9914 14.8914C14.9045 14.8914 14.8196 14.917 14.7469 14.9651C14.3827 15.1689 14.0185 15.3657 13.644 15.545C13.4553 15.6359 13.2466 15.6759 13.0381 15.6611C12.8297 15.6464 12.6285 15.5773 12.4541 15.4607C12.2797 15.344 12.138 15.1838 12.0427 14.9953C11.9473 14.8069 11.9016 14.5967 11.9099 14.3852ZM15.007 13.8123C15.2381 13.8315 15.4626 13.8998 15.6659 14.0126C15.992 14.1884 16.318 14.3641 16.6474 14.5363C16.7411 14.5855 16.8347 14.6839 16.9457 14.5996C17.0567 14.5152 17.022 14.3992 17.0047 14.2938C16.9457 13.9002 16.8798 13.51 16.8139 13.1164C16.7687 12.8932 16.7831 12.6619 16.8557 12.4462C16.9282 12.2306 17.0563 12.0385 17.2266 11.8898C17.4902 11.6438 17.7399 11.3802 17.9931 11.1236C18.0764 11.0393 18.2047 10.969 18.1665 10.8249C18.1284 10.6808 17.9584 10.6808 17.837 10.6597C17.5145 10.6035 17.192 10.5472 16.8694 10.5156C16.6171 10.5055 16.3729 10.4224 16.1657 10.276C15.9586 10.1296 15.7972 9.92615 15.7006 9.6897C15.5411 9.33824 15.3711 8.98678 15.1943 8.63533C15.0625 8.38228 14.9411 8.37876 14.8128 8.63533C14.6255 8.98678 14.4486 9.36284 14.2717 9.73187C14.1771 9.94473 14.0284 10.1282 13.8406 10.2635C13.6529 10.3988 13.433 10.4809 13.2035 10.5016C12.8185 10.5508 12.4301 10.6105 12.0451 10.6773C11.7954 10.7195 11.7538 10.853 11.9341 11.0288C12.1943 11.2923 12.4509 11.57 12.7284 11.816C12.9287 11.9887 13.0764 12.2155 13.1544 12.47C13.2324 12.7245 13.2374 12.9962 13.1688 13.2535C13.0995 13.6049 13.037 13.9564 12.9954 14.3078C12.9538 14.6593 13.0474 14.6804 13.318 14.5433C13.6648 14.3676 14.0116 14.1919 14.3307 14.0021C14.54 13.8901 14.7707 13.8254 15.007 13.8123Z" fill="#023D3D"/>
</g>
<defs>
<clipPath id="clip0_33_318">
<rect width="30" height="34" fill="white"/>
</clipPath>
</defs>
</svg>
