<svg width="43" height="72" viewBox="0 0 43 72" fill="none" xmlns="http://www.w3.org/2000/svg">
<g clip-path="url(#clip0_36_383)">
<path d="M22.5908 -0.000248812H29.5632C29.872 -0.000248812 30.1907 -0.000248812 30.5095 -0.000248812C30.815 -0.023441 31.1211 0.0358673 31.396 0.171504C31.6709 0.307141 31.9044 0.514139 32.0722 0.770926C32.2401 1.02771 32.3361 1.3249 32.3503 1.6315C32.3645 1.93811 32.2963 2.2429 32.153 2.51415C31.0174 5.89664 29.862 9.26916 28.7165 12.6317C27.7802 15.359 26.8473 18.0763 25.9176 20.7836C25.5889 21.7315 25.6287 21.7813 26.6447 21.7813H40.8486C41.6653 21.7813 42.4124 21.8612 42.8407 22.6793C42.9873 23.0237 43.0305 23.4034 42.9651 23.772C42.8996 24.1406 42.7283 24.4821 42.4721 24.7547C32.2459 40.1006 22.023 55.4499 11.8034 70.8024L11.5643 71.1516C11.356 71.4877 11.0358 71.7391 10.6603 71.8614C10.2848 71.9837 9.87823 71.9691 9.51245 71.8201C9.15286 71.6927 8.85264 71.4372 8.66895 71.1023C8.48527 70.7674 8.43097 70.3766 8.51639 70.0042C8.81521 68.2281 9.15387 66.4521 9.51245 64.676C10.9069 57.2525 12.3047 49.8323 13.7059 42.4155C13.8254 41.7869 13.7059 41.5574 12.9987 41.5574C9.38296 41.5574 5.76727 41.5574 2.15157 41.5574C0.308854 41.5574 -0.358531 40.6394 0.229146 38.9033L12.8393 1.59619C12.9226 1.07557 13.2082 0.609147 13.6338 0.2988C14.0593 -0.0115472 14.5901 -0.140578 15.1103 -0.0601133C17.6104 -0.0102242 20.0707 -0.000248812 22.5908 -0.000248812ZM13.3473 62.2614L13.4469 62.3412C13.5465 62.2015 13.6461 62.0718 13.7357 61.9321L37.6412 26.0119C37.7807 25.8024 38.0695 25.5929 37.9301 25.3335C37.7907 25.074 37.4122 25.1838 37.1333 25.1838H24.1845C23.7262 25.1911 23.2686 25.1476 22.8199 25.0541C22.5218 24.9901 22.2504 24.8363 22.042 24.6134C21.8337 24.3904 21.6985 24.109 21.6545 23.8068C21.6043 23.2882 21.6901 22.7654 21.9035 22.2902C23.9554 16.3035 26.0106 10.3002 28.0691 4.28023C28.3081 3.57181 28.2683 3.28245 27.4316 3.33234C23.8159 3.33234 20.2102 3.33234 16.5945 3.33234C16.3434 3.29974 16.0894 3.36412 15.884 3.51239C15.6787 3.66066 15.5374 3.88169 15.4888 4.13057C11.7636 15.206 8.01836 26.278 4.25325 37.3467C4.00423 38.0951 4.15363 38.2946 4.93056 38.2847C8.37694 38.2847 11.8134 38.2847 15.2598 38.2847C17.0427 38.2847 17.7101 39.1128 17.3714 40.8689C16.0234 47.9931 14.6754 55.1239 13.3274 62.2614H13.3473Z" fill="#034E4E"/>
<path d="M6.97248 22.949H41.8347L9.46264 70.3437L15.439 39.9113H1.49414L6.97248 22.949Z" fill="url(#paint0_linear_36_383)" fill-opacity="0.5"/>
</g>
<defs>
<linearGradient id="paint0_linear_36_383" x1="25.6486" y1="22.949" x2="9.41223" y2="71.8236" gradientUnits="userSpaceOnUse">
<stop stop-color="#034E4E" stop-opacity="0"/>
<stop offset="0.965024" stop-color="#034E4E"/>
</linearGradient>
<clipPath id="clip0_36_383">
<rect width="43" height="72" fill="white"/>
</clipPath>
</defs>
</svg>
