<svg width="56" height="72" viewBox="0 0 56 72" fill="none" xmlns="http://www.w3.org/2000/svg">
<g clip-path="url(#clip0_38_425)">
<path d="M41.0887 0.0214844C42.1786 0.279334 43.1633 0.864541 43.9102 1.69834C44.6572 2.53214 45.1306 3.57452 45.2668 4.68523C45.3426 5.38836 45.2784 6.0995 45.0779 6.77775C44.8774 7.45599 44.5447 8.08793 44.0987 8.63714C43.6528 9.18635 43.1026 9.64201 42.4797 9.97786C41.8568 10.3137 41.1735 10.5231 40.4692 10.5941C39.1019 10.7379 37.7321 10.3455 36.6489 9.49955C35.5656 8.6536 34.8537 7.42031 34.6632 6.05988C34.4738 4.76325 34.7675 3.44227 35.4886 2.34772C36.2096 1.25317 37.3079 0.461242 38.5747 0.122255L38.834 0.0214844H41.0887ZM42.3133 5.31856C42.3213 4.69265 42.0838 4.08849 41.6517 3.63524C41.2196 3.182 40.6271 2.91564 40.001 2.89313C39.3752 2.89285 38.7739 3.13621 38.3247 3.57157C37.8755 4.00693 37.6138 4.60003 37.595 5.22501C37.5874 5.54071 37.6421 5.85482 37.756 6.1494C37.8698 6.44399 38.0407 6.71326 38.2588 6.94184C38.4769 7.17042 38.7379 7.35382 39.0269 7.48158C39.316 7.60934 39.6274 7.67894 39.9434 7.68641C40.5733 7.67886 41.175 7.424 41.6184 6.97692C42.0619 6.52983 42.3115 5.92639 42.3133 5.29696V5.31856Z" fill="#034E4E"/>
<path d="M24.6143 68.4879C34.7497 68.6894 44.5248 60.8805 46.0663 49.8977C46.8106 44.909 45.665 39.8224 42.8536 35.6331C41.1464 33.0277 39.3527 30.4799 37.6022 27.9033C37.4355 27.675 37.2862 27.4344 37.1556 27.1836C36.9745 26.8625 36.9236 26.4842 37.0134 26.1267C37.1032 25.7691 37.3268 25.4597 37.6382 25.262C37.9272 25.0511 38.2872 24.9617 38.6413 25.0128C38.9954 25.0639 39.3154 25.2516 39.5328 25.5355C42.2413 29.6522 45.4973 33.4523 47.4566 38.0225C48.5187 40.5842 49.1209 43.3128 49.2359 46.0833C49.2375 46.2788 49.2919 46.4702 49.3934 46.6374C49.4948 46.8046 49.6395 46.9414 49.8122 47.0333C52.1107 48.5166 53.9067 50.6594 54.9647 53.1806C56.0227 55.7019 56.2931 58.4837 55.7406 61.1612C55.1938 63.7925 53.8791 66.2029 51.9625 68.0884C50.0458 69.9739 47.6132 71.2499 44.9714 71.7554C41.5986 72.4323 38.0945 71.7688 35.2035 69.9057C35.0084 69.7629 34.7785 69.6749 34.5378 69.6508C34.2971 69.6268 34.0544 69.6676 33.8348 69.769C29.2098 71.6454 24.1214 72.065 19.251 70.9716C14.3807 69.8783 9.96103 67.3242 6.58397 63.6514C2.87844 59.7347 0.595537 54.6889 0.100824 49.322C-0.533084 42.9741 1.33261 37.3604 5.04241 32.2648C5.58988 31.5091 6.07973 30.7102 6.6344 29.9545C6.92975 29.5443 6.95855 29.3428 6.43989 29.0693C5.45027 28.5883 4.58564 27.8847 3.91381 27.0138C3.24198 26.143 2.78121 25.1284 2.56766 24.0497C2.35411 22.9711 2.3936 21.8577 2.68299 20.7968C2.97238 19.736 3.50381 18.7566 4.23563 17.9353C4.85616 17.2316 5.60966 16.6572 6.45289 16.245C7.29611 15.8329 8.2125 15.5911 9.14945 15.5336C10.0864 15.4761 11.0255 15.604 11.9129 15.9099C12.8002 16.2159 13.6184 16.6938 14.3205 17.3164C14.8248 17.777 15.0409 17.6906 15.3506 17.1868C17.8935 13.4227 20.4651 9.68024 23.0224 5.92334C24.0597 4.40475 25.097 4.39034 26.1199 5.88734C28.1753 8.88134 30.2235 11.8778 32.2644 14.8766C32.3797 15.0493 32.5022 15.222 32.6174 15.4019C32.7462 15.5572 32.8409 15.7377 32.8953 15.9318C32.9498 16.1259 32.9629 16.3293 32.9337 16.5288C32.9045 16.7283 32.8337 16.9194 32.7258 17.0898C32.618 17.2602 32.4755 17.406 32.3077 17.5179C32.1383 17.64 31.945 17.7249 31.7404 17.7672C31.5359 17.8095 31.3248 17.8082 31.1208 17.7634C30.9168 17.7185 30.7246 17.6312 30.5567 17.507C30.3888 17.3829 30.2491 17.2247 30.1466 17.0429C28.4394 14.5815 26.761 12.0985 25.0682 9.62265C24.5855 8.90294 24.5639 8.90294 24.0813 9.62265C21.6465 13.178 19.2261 16.7406 16.7841 20.2888C16.6855 20.4295 16.6178 20.5894 16.5856 20.7582C16.5533 20.9269 16.5571 21.1005 16.5968 21.2676C16.7782 22.2008 16.7728 23.1607 16.5808 24.0919C16.3888 25.023 16.0141 25.9069 15.4783 26.6925C14.9424 27.4781 14.2561 28.1499 13.459 28.669C12.6619 29.1881 11.7697 29.5443 10.834 29.717C10.6836 29.7339 10.5384 29.7824 10.4081 29.8593C10.2777 29.9362 10.1651 30.0398 10.0777 30.1632C8.56494 32.4447 6.80728 34.5751 5.54667 37.0149C1.5055 44.831 2.06738 52.4455 7.08102 59.6067C10.7692 64.875 16.0205 67.7322 22.4029 68.4879C23.1393 68.5325 23.8778 68.5325 24.6143 68.4879ZM37.6887 67.8258C41.7875 70.172 48.2418 69.1357 51.4474 64.0113C54.4728 59.1676 52.8881 52.8773 49.0486 50.2144C48.5429 53.7962 47.2653 57.2257 45.3041 60.2663C43.3428 63.3068 40.7446 65.886 37.6887 67.8258ZM9.59503 26.8022C10.141 26.8195 10.6849 26.7272 11.1946 26.5308C11.7042 26.3344 12.1693 26.0379 12.5622 25.6588C12.9551 25.2796 13.2679 24.8256 13.482 24.3235C13.6962 23.8214 13.8074 23.2816 13.8091 22.7358C13.8294 22.1772 13.737 21.6202 13.5374 21.098C13.3378 20.5758 13.0351 20.0991 12.6473 19.6962C12.2595 19.2933 11.7945 18.9724 11.28 18.7528C10.7656 18.5331 10.2121 18.4191 9.65267 18.4175C8.55065 18.4319 7.49685 18.8713 6.71152 19.6439C5.92619 20.4165 5.47012 21.4624 5.43862 22.5631C5.42519 23.1156 5.52231 23.6653 5.72427 24.1799C5.92623 24.6945 6.22895 25.1636 6.61473 25.5597C7.0005 25.9559 7.46154 26.2711 7.97084 26.4869C8.48013 26.7027 9.02742 26.8148 9.58063 26.8166L9.59503 26.8022Z" fill="#034E4E"/>
<path d="M12.2243 46.3997C12.2241 47.4832 12.4641 48.5532 12.9272 49.5329C13.3902 50.5126 14.0647 51.3776 14.9023 52.0658C15.7399 52.754 16.7196 53.2482 17.7712 53.5129C18.8227 53.7776 19.9199 53.8063 20.9838 53.5969C22.0959 53.3738 23.1064 52.7983 23.8652 51.9559C24.0382 51.7185 24.2719 51.5317 24.5418 51.4153C24.8117 51.2988 25.1079 51.2568 25.3995 51.2938C25.6732 51.3402 25.9285 51.4621 26.1366 51.6456C26.3447 51.8291 26.4974 52.0671 26.5775 52.3326C26.6576 52.5981 26.6619 52.8807 26.59 53.1486C26.5181 53.4165 26.3727 53.659 26.1703 53.8488C24.8509 55.3701 23.0179 56.3537 21.0198 56.6125C19.6591 56.8043 18.2738 56.7234 16.9447 56.3744C15.6157 56.0254 14.3696 55.4153 13.2791 54.5798C12.1887 53.7443 11.2758 52.7001 10.5938 51.5081C9.91178 50.3162 9.47431 49.0004 9.30693 47.6376C8.52175 42.1966 12.5845 36.9499 18.1816 36.1582C20.5682 35.8171 22.9987 36.3268 25.0466 37.5977C25.3504 37.7284 25.6059 37.9504 25.7775 38.2329C25.9492 38.5153 26.0286 38.8442 26.0046 39.1738C25.9893 39.4369 25.9019 39.6908 25.7521 39.9077C25.6022 40.1246 25.3957 40.2962 25.1549 40.4038C24.9141 40.5115 24.6484 40.551 24.3867 40.5182C24.125 40.4853 23.8773 40.3813 23.6707 40.2174C22.4576 39.4482 21.0519 39.0366 19.6151 39.0299C18.6431 39.0203 17.6789 39.2043 16.7788 39.5711C15.8787 39.9379 15.0608 40.4801 14.3728 41.1662C13.6848 41.8523 13.1404 42.6684 12.7715 43.567C12.4027 44.4656 12.2166 45.4286 12.2243 46.3997Z" fill="#034E4E"/>
<path d="M40.2675 50.5165C40.2675 51.956 40.2675 53.4674 40.2675 54.9356C40.3225 55.3125 40.239 55.6967 40.0324 56.0169C39.8258 56.3371 39.5102 56.5717 39.1438 56.6773C38.4739 56.8788 37.984 56.6773 37.4222 55.8352C37.134 55.4106 36.8819 55.7129 36.6442 55.7992C35.3658 56.2945 33.9516 56.3133 32.6605 55.852C31.3694 55.3907 30.2878 54.4803 29.6136 53.2874C29.0464 52.2828 28.7997 51.129 28.9065 49.9805C29.0134 48.832 29.4686 47.7434 30.2114 46.8604C30.9566 45.9623 31.9636 45.3187 33.0921 45.0194C34.2206 44.7201 35.4145 44.78 36.5073 45.1907C37.0044 45.3706 37.3069 45.4354 37.6239 44.874C37.7771 44.6184 38.0161 44.4254 38.2983 44.3292C38.5805 44.233 38.8878 44.2399 39.1654 44.3486C39.4973 44.4405 39.7873 44.6438 39.9868 44.9243C40.1862 45.2049 40.2828 45.5455 40.2603 45.8888C40.2603 47.429 40.2603 48.9764 40.2603 50.5165H40.2675ZM37.2565 50.5165C37.2603 49.8077 36.9826 49.1263 36.4843 48.6217C35.9861 48.1171 35.3078 47.8305 34.5984 47.8248C34.2415 47.8191 33.887 47.8839 33.5552 48.0156C33.2235 48.1472 32.9211 48.3431 32.6654 48.5919C32.4097 48.8407 32.2057 49.1375 32.0652 49.4654C31.9247 49.7932 31.8504 50.1456 31.8467 50.5022C31.8418 50.8595 31.9085 51.2143 32.0427 51.5456C32.177 51.8768 32.3761 52.178 32.6284 52.4314C32.8806 52.6848 33.181 52.8853 33.5119 53.0212C33.8428 53.1571 34.1974 53.2256 34.5552 53.2227C34.914 53.2286 35.2703 53.1619 35.6027 53.0266C35.935 52.8913 36.2365 52.6901 36.4889 52.4352C36.7413 52.1803 36.9394 51.877 37.0713 51.5435C37.2033 51.2101 37.2662 50.8534 37.2565 50.495V50.5165Z" fill="#034E4E"/>
<path d="M35.1531 20.1736C35.5352 20.1736 35.9016 20.3253 36.1718 20.5952C36.442 20.8652 36.5938 21.2313 36.5938 21.6131C36.5753 22.0001 36.4088 22.3652 36.1286 22.6331C35.8485 22.9009 35.476 23.0511 35.0882 23.0525C34.7003 23.0394 34.3328 22.8756 34.0638 22.5961C33.7948 22.3166 33.6454 21.9433 33.6475 21.5555C33.6549 21.3658 33.6998 21.1794 33.7796 21.0071C33.8594 20.8348 33.9725 20.68 34.1125 20.5515C34.2524 20.4231 34.4164 20.3236 34.595 20.2587C34.7736 20.1939 34.9633 20.1649 35.1531 20.1736Z" fill="#034E4E"/>
<path d="M46 36.5L38.5 26H14.0622L8 29.5L3.5 37L1 47L3.5 57.5L11.5 66.5L25.5 70.5L37.5 66.5L46 56.5L48 45L46 36.5Z" fill="url(#paint0_linear_38_425)" fill-opacity="0.5"/>
</g>
<defs>
<linearGradient id="paint0_linear_38_425" x1="29.142" y1="26" x2="16.4129" y2="73.5461" gradientUnits="userSpaceOnUse">
<stop stop-color="#034E4E" stop-opacity="0"/>
<stop offset="0.965024" stop-color="#034E4E"/>
</linearGradient>
<clipPath id="clip0_38_425">
<rect width="56" height="72" fill="white"/>
</clipPath>
</defs>
</svg>
