<svg width="66" height="72" viewBox="0 0 66 72" fill="none" xmlns="http://www.w3.org/2000/svg">
<g clip-path="url(#clip0_47_439)">
<path d="M33.5478 -3.01562e-05C43.2257 4.79485 53.1046 9.1322 63.1842 13.012C63.7276 13.1705 64.2092 13.4925 64.5639 13.9344C64.9186 14.3763 65.1292 14.9168 65.1673 15.4827C65.8017 19.439 66.0658 23.446 65.9562 27.4516C65.5946 37.4 63.2062 46.7555 57.4432 55.0239C51.7545 63.2527 43.3633 69.2181 33.7341 71.8792C33.2417 72.0329 32.7144 72.0329 32.2221 71.8792C26.4559 70.2765 21.0898 67.4778 16.4714 63.6643C11.8531 59.8509 8.08537 55.1078 5.41234 49.7422C2.88305 44.7115 1.24099 39.2802 0.558759 33.6885C0.10401 30.3711 -0.0719197 27.0212 0.0328507 23.6742C0.117042 20.7056 0.420983 17.7473 0.942199 14.8238C0.990369 14.4529 1.14259 14.1033 1.38114 13.8156C1.61969 13.5279 1.93478 13.314 2.28982 13.1987C9.42229 10.4535 16.4671 7.49974 23.4024 4.28242C26.4263 2.86592 29.4283 1.39452 32.4412 -0.0439453L33.5478 -3.01562e-05ZM3.15537 25.3982C3.2978 27.8908 3.34161 30.4602 3.69221 33.0187C4.35634 38.7068 6.06112 44.2235 8.72109 49.292C11.1859 53.9532 14.5608 58.07 18.6451 61.3976C22.7295 64.7252 27.4398 67.1956 32.496 68.6619C32.8276 68.7664 33.1833 68.7664 33.5149 68.6619C36.3401 67.8174 39.063 66.661 41.6334 65.2139C49.7353 60.732 55.9921 53.5198 59.2948 44.8559C61.1313 40.1132 62.2396 35.1188 62.5816 30.043C62.9144 25.5863 62.7749 21.1068 62.1653 16.6796C62.148 16.4525 62.0606 16.2365 61.9153 16.0614C61.7701 15.8863 61.5741 15.7608 61.3546 15.7023C51.9761 12.0787 42.7765 8.05244 33.756 3.62358C33.5187 3.48884 33.2507 3.41802 32.9781 3.41802C32.7054 3.41802 32.4374 3.48884 32.2002 3.62358C27.5986 5.88559 22.9568 8.03779 18.2749 10.0802C13.7682 12.0494 9.2324 13.9234 4.66733 15.7023C4.44656 15.753 4.24689 15.871 4.09581 16.0401C3.94473 16.2092 3.84966 16.4211 3.82368 16.6466C3.45759 19.5507 3.24184 22.4718 3.17727 25.3982H3.15537Z" fill="#034E4E"/>
<path d="M51.001 35.9725C51.001 36.4667 51.001 36.9608 51.001 37.4549C51.0164 37.8228 50.8967 38.1836 50.6645 38.469C50.4323 38.7543 50.1037 38.9444 49.741 39.0032C49.4071 39.0837 49.0554 39.0416 48.7499 38.8845C48.4443 38.7273 48.2051 38.4655 48.0757 38.1467C48.0074 37.9378 47.8645 37.7616 47.6743 37.6521C47.4841 37.5426 47.2602 37.5076 47.0458 37.5537C46.5345 37.5537 46.0196 37.5537 45.501 37.5537C45.4207 37.543 45.339 37.549 45.2611 37.5712C45.1832 37.5934 45.1106 37.6315 45.048 37.6829C44.9853 37.7344 44.9339 37.7982 44.8968 37.8705C44.8598 37.9427 44.8379 38.0217 44.8326 38.1028C44.5403 39.8419 43.8544 41.4909 42.8277 42.9233C42.5866 43.2527 42.6633 43.4503 42.9263 43.6919C43.2384 43.9755 43.5346 44.2761 43.8137 44.5923C44.252 45.0974 44.6464 45.4159 45.4024 45.0535C45.6942 44.9525 46.0123 44.9576 46.3007 45.068C46.5892 45.1784 46.8297 45.3871 46.98 45.6574C47.1879 45.9049 47.3018 46.218 47.3018 46.5414C47.3018 46.8648 47.1879 47.1779 46.98 47.4253C46.2117 48.3711 45.349 49.2357 44.4054 50.0058C44.1409 50.2077 43.8143 50.3106 43.4821 50.2965C43.15 50.2825 42.8332 50.1524 42.5866 49.9289C42.3116 49.7251 42.1162 49.4315 42.0342 49.0987C41.9522 48.7659 41.9887 48.4148 42.1374 48.1061C42.2324 47.9622 42.2683 47.7872 42.2377 47.6174C42.2071 47.4476 42.1123 47.2962 41.9731 47.1947C41.4362 46.7006 41.0089 45.9429 40.3954 45.7453C39.7818 45.5476 39.2231 46.3492 38.6095 46.6567C37.5438 47.1968 36.408 47.5849 35.235 47.8097C34.753 47.8865 34.5338 48.0951 34.5667 48.5893C34.6024 48.9544 34.6024 49.3222 34.5667 49.6873C34.5119 50.3791 34.5667 50.9062 35.3555 51.2576C35.6444 51.4004 35.8697 51.6462 35.9873 51.9468C36.1048 52.2474 36.1062 52.5812 35.991 52.8827C35.9239 53.2075 35.7484 53.4997 35.4935 53.7112C35.2386 53.9228 34.9195 54.0411 34.5886 54.0466C33.5368 54.0466 32.485 54.0466 31.4332 54.0466C31.0907 54.0476 30.7587 53.9284 30.4946 53.7098C30.2305 53.4913 30.0509 53.187 29.987 52.8498C29.8911 52.5184 29.9181 52.1635 30.0632 51.8506C30.2082 51.5377 30.4614 51.288 30.7759 51.1478C30.9996 51.0766 31.1893 50.9252 31.3086 50.7226C31.4278 50.52 31.4683 50.2804 31.4223 50.0497C31.3675 49.4238 31.6305 48.6991 31.3018 48.183C30.9731 47.6669 30.2061 47.8206 29.6145 47.6449C28.3839 47.2733 27.2193 46.7101 26.1633 45.9759C26.1016 45.9077 26.025 45.8549 25.9394 45.8216C25.8538 45.7882 25.7617 45.7753 25.6703 45.7839C25.5789 45.7924 25.4907 45.8221 25.4127 45.8707C25.3348 45.9192 25.2692 45.9853 25.2211 46.0637C24.9807 46.3523 24.7168 46.6205 24.4322 46.8653C23.9392 47.3045 23.5119 47.6889 23.9283 48.5014C24.235 49.0944 23.8406 49.6873 23.3147 50.0717C23.0688 50.282 22.7561 50.3976 22.4328 50.3976C22.1094 50.3976 21.7967 50.282 21.5508 50.0717C20.628 49.3171 19.7838 48.4709 19.0308 47.5461C18.8188 47.2899 18.7028 46.9676 18.7028 46.6347C18.7028 46.3019 18.8188 45.9795 19.0308 45.7233C19.2211 45.4383 19.5067 45.2308 19.8362 45.1382C20.1656 45.0455 20.5173 45.0739 20.8277 45.2182C20.9086 45.2735 20.9997 45.312 21.0957 45.3314C21.1916 45.3508 21.2905 45.3508 21.3865 45.3314C21.4824 45.3119 21.5735 45.2735 21.6544 45.2182C21.7353 45.1629 21.8044 45.092 21.8575 45.0096C22.3177 44.4935 23.0627 44.0762 23.249 43.4723C23.4352 42.8684 22.6464 42.3742 22.3506 41.7483C21.7914 40.6665 21.3927 39.5087 21.1673 38.3114C21.0906 37.8173 20.8605 37.6196 20.3785 37.6526C19.8964 37.6855 19.7211 37.6526 19.3924 37.6526C18.7131 37.6526 18.1105 37.5977 17.7709 38.4542C17.6264 38.7442 17.3778 38.9687 17.0751 39.0827C16.7723 39.1968 16.4377 39.1919 16.1384 39.0691C15.8228 38.9921 15.5426 38.81 15.3436 38.5527C15.1446 38.2954 15.0385 37.9781 15.0428 37.6526C15.0428 36.6204 15.0428 35.5882 15.0428 34.567C15.0338 34.211 15.151 33.8634 15.3737 33.5859C15.5964 33.3085 15.9101 33.1192 16.2589 33.0517C16.592 32.9631 16.9457 32.9976 17.2555 33.1488C17.5653 33.3 17.8104 33.5578 17.9462 33.8752C18.0194 34.0968 18.1718 34.2834 18.3741 34.399C18.5764 34.5145 18.8143 34.5509 19.0418 34.5011C19.6644 34.5715 20.2943 34.5344 20.9043 34.3913C21.485 34.1168 21.2988 33.2933 21.496 32.6783C21.8511 31.462 22.4025 30.3121 23.1284 29.2743C23.2188 29.2083 23.2901 29.1195 23.3352 29.0169C23.3803 28.9144 23.3976 28.8017 23.3854 28.6903C23.3732 28.579 23.3318 28.4728 23.2656 28.3825C23.1993 28.2922 23.1104 28.2211 23.0079 28.1763C22.7434 27.9441 22.4946 27.6947 22.2629 27.4296C21.8137 26.9135 21.4193 26.5402 20.6195 26.9355C20.0279 27.232 19.4362 26.8366 19.0527 26.2986C18.8457 26.0529 18.7322 25.7417 18.7322 25.4201C18.7322 25.0986 18.8457 24.7874 19.0527 24.5417C19.8085 23.6195 20.6525 22.7736 21.5727 22.0161C21.8283 21.8036 22.1499 21.6873 22.482 21.6873C22.8141 21.6873 23.1358 21.8036 23.3914 22.0161C23.6765 22.2089 23.8831 22.4978 23.9736 22.8303C24.0641 23.1628 24.0325 23.5168 23.8844 23.828C23.8315 23.9093 23.7952 24.0003 23.7776 24.0958C23.76 24.1913 23.7614 24.2894 23.7818 24.3843C23.8021 24.4792 23.8411 24.5692 23.8963 24.649C23.9515 24.7287 24.022 24.7968 24.1036 24.8492C24.5418 25.2445 24.9472 25.6727 25.3525 26.09C25.3897 26.1479 25.4393 26.1967 25.4978 26.2329C25.5562 26.269 25.622 26.2916 25.6903 26.299C25.7586 26.3064 25.8277 26.2983 25.8925 26.2755C25.9573 26.2526 26.0161 26.2155 26.0647 26.1668C27.4898 25.1283 29.1365 24.4366 30.8745 24.1464C30.9614 24.1416 31.0464 24.1183 31.1236 24.078C31.2009 24.0378 31.2687 23.9815 31.3226 23.913C31.3765 23.8444 31.4152 23.7651 31.4362 23.6804C31.4571 23.5957 31.4599 23.5075 31.4442 23.4217C31.4168 23.0232 31.4168 22.6233 31.4442 22.2248C31.4442 21.5769 31.4442 21.1267 30.6882 20.7863C30.3918 20.633 30.1607 20.3772 30.0378 20.0663C29.915 19.7555 29.9086 19.4105 30.0199 19.0953C30.1046 18.7791 30.2913 18.4999 30.5509 18.3013C30.8106 18.1027 31.1285 17.9957 31.4551 17.9972C32.485 17.9972 33.5149 17.9972 34.5338 17.9972C34.8891 17.9848 35.2367 18.1029 35.5112 18.3294C35.7856 18.5559 35.968 18.8752 36.0239 19.2271C36.1099 19.5608 36.0744 19.9144 35.9238 20.2243C35.7732 20.5342 35.5174 20.7802 35.2022 20.9181C34.9905 20.9798 34.8098 21.1192 34.6961 21.3084C34.5824 21.4977 34.544 21.7229 34.5886 21.9393C34.6434 22.5871 34.3804 23.3338 34.6982 23.8719C35.0159 24.4099 35.7938 24.2562 36.4183 24.4538C37.6503 24.827 38.8152 25.3941 39.8695 26.1339C40.231 26.3974 40.4721 26.3864 40.7569 26.057C41.0031 25.7737 41.2665 25.506 41.5458 25.2554C42.0717 24.7942 42.4771 24.388 42.0717 23.5534C41.7759 22.9605 42.1922 22.3785 42.7181 21.9942C42.964 21.7838 43.2768 21.6683 43.6001 21.6683C43.9234 21.6683 44.2361 21.7838 44.482 21.9942C45.3532 22.7703 46.1799 23.5952 46.9581 24.4648C47.1869 24.7238 47.3132 25.0578 47.3132 25.4037C47.3132 25.7496 47.1869 26.0835 46.9581 26.3425C46.7612 26.6228 46.4715 26.8239 46.1405 26.9104C45.8096 26.9968 45.4587 26.9629 45.1504 26.8147C45.0743 26.7635 44.9889 26.7279 44.8991 26.7101C44.8092 26.6924 44.7167 26.6927 44.627 26.7111C44.5372 26.7295 44.4521 26.7656 44.3764 26.8173C44.3007 26.869 44.2361 26.9353 44.1862 27.0123C43.8131 27.4321 43.4142 27.8281 42.992 28.1982C42.6304 28.5167 42.6633 28.7692 42.9263 29.1426C43.8935 30.5038 44.5448 32.0645 44.8326 33.7105C44.9203 34.2376 45.1504 34.4462 45.6653 34.3913C45.9682 34.3748 46.2718 34.3748 46.5747 34.3913C47.2978 34.3913 47.9004 34.3913 48.2619 33.5678C48.4122 33.281 48.665 33.0617 48.9698 32.9538C49.2745 32.8459 49.6087 32.8573 49.9053 32.9858C50.2208 33.0707 50.4994 33.2578 50.6976 33.518C50.8958 33.7782 51.0024 34.0969 51.001 34.4243C51.0119 34.9404 51.001 35.4674 51.001 35.9725ZM32.9342 44.9108C35.2833 44.9313 37.5449 44.0187 39.2244 42.3725C40.9039 40.7263 41.8646 38.4805 41.8964 36.1263C41.9273 34.9488 41.7215 33.7771 41.2915 32.6809C40.8614 31.5847 40.2157 30.5864 39.3929 29.7453C38.5701 28.9043 37.5869 28.2376 36.5018 27.7851C35.4167 27.3326 34.2519 27.1034 33.0767 27.1112C31.9092 27.0848 30.7481 27.2926 29.6619 27.7222C28.5756 28.1519 27.5859 28.7948 26.751 29.6131C25.9161 30.4315 25.2528 31.4088 24.8001 32.4877C24.3473 33.5666 24.1142 34.7252 24.1145 35.8957C24.0986 37.0692 24.3145 38.2343 24.75 39.3238C25.1854 40.4133 25.8317 41.4056 26.6515 42.2437C27.4714 43.0817 28.4486 43.7488 29.5269 44.2065C30.6052 44.6643 31.7632 44.9036 32.9342 44.9108Z" fill="#034E4E"/>
<path d="M30.0418 35.9287C30.4554 35.9344 30.85 36.1039 31.1394 36.4002C31.4288 36.6964 31.5896 37.0953 31.5866 37.5099C31.5644 37.9217 31.3868 38.3097 31.0898 38.5951C30.7928 38.8806 30.3985 39.0422 29.987 39.0472C29.7827 39.0415 29.5815 38.9955 29.3949 38.9118C29.2083 38.8282 29.04 38.7085 28.8996 38.5596C28.7592 38.4107 28.6494 38.2355 28.5766 38.0441C28.5037 37.8527 28.4693 37.6488 28.4751 37.444C28.4702 37.2389 28.5078 37.0351 28.5855 36.8454C28.6632 36.6556 28.7794 36.4842 28.9267 36.3417C29.0739 36.1993 29.2491 36.0891 29.441 36.018C29.633 35.9469 29.8375 35.9164 30.0418 35.9287Z" fill="#034E4E"/>
<path d="M33.0438 33.0736C33.0212 33.4854 32.8367 33.8714 32.5307 34.1471C32.2248 34.4229 31.8223 34.566 31.4113 34.545C31.014 34.5072 30.6445 34.3239 30.3737 34.0301C30.1028 33.7364 29.9495 33.3528 29.9432 32.9528C29.9486 32.7422 29.9965 32.5349 30.0841 32.3433C30.1717 32.1518 30.2971 31.98 30.4527 31.8384C30.6083 31.6968 30.791 31.5882 30.9897 31.5193C31.1883 31.4504 31.3989 31.4226 31.6086 31.4375C31.8127 31.4425 32.0136 31.4897 32.1986 31.5763C32.3836 31.6629 32.5487 31.787 32.6836 31.9406C32.8184 32.0943 32.92 32.2744 32.982 32.4693C33.044 32.6643 33.0651 32.8701 33.0438 33.0736Z" fill="#034E4E"/>
<path d="M34.49 40.5186C34.286 40.5248 34.0829 40.4889 33.8933 40.4131C33.7037 40.3373 33.5316 40.2233 33.3878 40.0782C33.244 39.933 33.1315 39.7597 33.0572 39.5692C32.983 39.3786 32.9486 39.1748 32.9562 38.9704C32.9562 38.5558 33.1197 38.1581 33.4112 37.8639C33.7027 37.5698 34.0983 37.403 34.512 37.4001C34.9231 37.4167 35.3125 37.5893 35.6014 37.8829C35.8902 38.1765 36.0569 38.5692 36.0677 38.9814C36.0663 39.1865 36.0242 39.3894 35.9439 39.5782C35.8636 39.7669 35.7466 39.9378 35.5998 40.0808C35.453 40.2239 35.2793 40.3362 35.0888 40.4114C34.8983 40.4866 34.6947 40.523 34.49 40.5186Z" fill="#034E4E"/>
<path d="M36.0129 36.0164C35.8086 36.0208 35.6054 35.9848 35.415 35.9105C35.2246 35.8361 35.0506 35.7249 34.9031 35.5831C34.7556 35.4414 34.6374 35.2719 34.5552 35.0844C34.4731 34.8968 34.4286 34.6949 34.4243 34.4901C34.4372 34.0794 34.6029 33.6884 34.8887 33.3939C35.1745 33.0993 35.5599 32.9224 35.9691 32.8979C36.3827 32.8979 36.7796 33.0619 37.0731 33.354C37.3666 33.6461 37.533 34.0427 37.5359 34.4572C37.5433 34.6612 37.5093 34.8646 37.4358 35.0549C37.3623 35.2453 37.251 35.4187 37.1085 35.5646C36.966 35.7105 36.7954 35.8257 36.6071 35.9034C36.4188 35.9811 36.2166 36.0196 36.0129 36.0164Z" fill="#034E4E"/>
<circle cx="33" cy="36" r="10" fill="url(#paint0_linear_47_439)" fill-opacity="0.5"/>
</g>
<defs>
<linearGradient id="paint0_linear_47_439" x1="34.9753" y1="26" x2="28.9793" y2="47.2052" gradientUnits="userSpaceOnUse">
<stop stop-color="#034E4E" stop-opacity="0"/>
<stop offset="0.965024" stop-color="#034E4E"/>
</linearGradient>
<clipPath id="clip0_47_439">
<rect width="66" height="72" fill="white"/>
</clipPath>
</defs>
</svg>
